<?xml version="1.0" encoding="UTF-8"?>
<svg id="Layer_1" data-name="Layer 1" xmlns="http://www.w3.org/2000/svg" viewBox="0 0 267.36 345.99">
  <defs>
    <style>
      .cls-1 {
        fill: #175a2d;
        font-family: Mali-Medium, Mali;
        font-size: 8.78px;
        font-weight: 500;
      }

      .cls-2 {
        fill: #a9c46c;
      }

      .cls-2, .cls-3 {
        stroke-width: 0px;
      }

      .cls-3 {
        fill: #5e873c;
      }
    </style>
  </defs>
  <text class="cls-1" transform="translate(98.9 215.15)"><tspan x="0" y="0">Koole</tspan></text>
  <path class="cls-2" d="M124.58,117.28v-.78c0-7.82,6.85-14.16,15.3-14.16h0c8.45,0,15.3,6.34,15.3,14.16v.78h3.76v-5.26c0-7.82-6.85-14.16-15.3-14.16h-7.52c-8.45,0-15.3,6.34-15.3,14.16v5.26h3.76Z"/>
  <g>
    <path class="cls-3" d="M182.62,113c-.03.42-.07.83-.1,1.25-.29,3.65-.7,7.16-1.22,10.52-3.18,20.56-15.77,38.16-33.6,47.33,8.3-12.78,14.9-30.55,16.92-55.25.24-2.89.41-5.87.52-8.96h-43.79c-12.39,0-22.43,13.21-22.43,29.51v67.26s.02,0,.06,0h0s-.06,0-.06,0h52.04c17.65,0,31.95-18.82,31.95-42.03v-49.61c0-.23-.26-.24-.27-.01Z"/>
    <path class="cls-2" d="M164.61,116.85c-1.32,16.24-4.64,29.48-9.11,40.28-4.14,7.65-15,15.83-44.54,15.45-1.17-.01-1.34,1.68-.18,1.88,6.53,1.13,17.81,1.8,35.61-.91,0,0,4.35-1.11,6.23-1.8,9.86-3.64,17.67-11.59,21.79-21.63,4.1-10.01,7.81-23.01,8.21-37.12-7.76,15.88-14.53,10.04-18.01,3.85Z"/>
  </g>
  <rect class="cls-2" x="117.84" y="166.19" width="8" height="16.21" rx="4" ry="4"/>
</svg>