<svg width="22" height="16" viewBox="0 0 22 16" fill="none" xmlns="http://www.w3.org/2000/svg">
<path d="M15.9305 0.2771L15.0867 0.286147L15.1064 2.11333C12.9608 2.73607 10.0189 3.03855 7.30294 3.21832C8.94811 7.73163 11.9603 11.3638 14.7019 15.2713C15.6731 14.35 17.0977 13.7721 18.6141 13.5833C17.6391 12.7345 16.8969 12.2724 15.8563 10.2815C17.3221 12.0199 18.321 12.5534 19.4949 13.1881C19.6478 12.5743 19.9139 12.0332 20.3724 11.6565C20.7787 11.3227 21.3112 11.1571 21.9442 11.1716C19.7469 8.37021 17.1784 5.68469 15.9521 2.29183L15.9305 0.2771ZM6.65367 0.824365L5.81002 0.835803C5.81002 0.835803 5.82173 1.69549 5.83627 2.56877C5.84358 3.00546 5.8515 3.44547 5.85919 3.78419C5.862 3.90776 5.86467 3.99888 5.86734 4.09085C4.25588 8.01583 2.62575 11.6374 0.0585938 15.0334C1.63523 14.9684 3.16762 14.9771 4.67822 15.0315C5.7218 12.0964 5.77256 8.71019 6.34823 5.56249C6.88341 8.77633 6.84351 12.099 7.91775 15.2108C9.93159 15.3552 11.9345 15.5482 13.981 15.7229C11.3715 12.0127 8.4398 8.45557 6.70988 4.03394C6.70753 3.95041 6.70519 3.87476 6.70275 3.76502C6.69516 3.42958 6.68714 2.99051 6.67987 2.55471C6.66534 1.68312 6.65367 0.824365 6.65367 0.824365Z" fill="#D04646"/>
</svg>
