<svg width="20" height="20" viewBox="0 0 20 20" fill="none" xmlns="http://www.w3.org/2000/svg">
<path d="M8.96381 4.07897L9 4.23205L8.99276 4.54377L8.91958 4.87869L8.79974 5.2034L8.70886 5.35369L7.79041 5.62923L7.5797 5.61625L6.9918 5.69418L6.73203 5.82499L6.62989 5.94374L6.59772 6.05507L6.51568 6.80098L6.57278 6.96519L6.64999 7.0125L6.02188 6.81489L5.74119 6.63677L5.03828 6.56069L4.85813 6.38813L4.73186 6.20722L4.66592 6.01796L4.67718 5.8621L4.63616 5.74984L4.55654 5.64129L4.47611 5.5847L4.36674 5.59584L4.26781 5.54388L4.14718 5.41864L4 5.21917L4.02574 5.02249L4.27988 4.85735L4.30883 4.78035L4.25253 4.6885L4.25655 4.43894L4.41177 4.29328L4.65707 4.33225L4.89432 4.25339L5.05598 4.13L5.39376 4.06877L5.67605 3.95836L5.72591 3.92404L5.75808 3.77653L5.80634 3.18741L5.89722 2.88775L5.97443 2.7625V2.77271L6.75696 2.78291L7.41081 3.01021L8.96381 4.07897Z" fill="black"/>
<path d="M6.05608 2.13735L6.13564 2.12076L6.21354 1.96142L6.34282 1.9498L6.47293 2.11246L6.54503 2.25271L6.54668 2.49421L6.30387 3.28178L6.22431 3.39381L6.13066 3.66187L6.08094 4.18885L6.04779 4.3208L5.99641 4.35151L5.70552 4.45027L5.35746 4.50504L5.19088 4.61541L4.94641 4.68596L4.69365 4.6511L4.5337 4.78139L4.52956 5.00463L4.58757 5.08679L4.55773 5.15567L4.29586 5.3034L4.26934 5.47933L4.42099 5.65776L4.5453 5.7698L4.64724 5.81627L4.75994 5.80631L4.84282 5.85693L4.92486 5.95403L4.96713 6.05445L4.95552 6.19387L5.02348 6.36317L5.15359 6.525L5.33923 6.67936L6.06354 6.74741L6.35276 6.90675L7 7.08352L6.96685 7.28601L6.69917 7.93582L6.62376 8.06943L6.46298 8.07026L6.28646 8.12669L6.12901 8.2603L5.95331 8.36902L4.78398 8.67774L4.33812 8.94331L4.10525 9.1375L4.08039 9.11012L3.90138 9.01302L3.88149 8.91675L3.88563 8.81799L3.82514 8.75492L3.73481 8.68521L3.69005 8.60471L3.62707 8.56653L3.52928 8.63708L3.47376 8.74662L3.45552 8.83376L3.39006 8.87857L3.30304 8.80969L3.20691 8.70762L2.99558 8.60056L2.90442 8.52255L2.8779 8.44371L2.90773 8.34329L2.95249 8.2462L2.94917 8.15657L2.87293 8.02544L2.75028 7.87606L2.59613 7.82627L2.45525 7.9076L2.30028 7.95988L2.17597 8.03208L2.07983 8.3267L2.0268 8.38313L1.80221 8.52587L1.72514 8.49682L1.40856 8.46944L1.22293 8.40056L1.07956 8.31757L1.04309 8.2462L1.05801 8.16487L1.08122 8.09018L1.19392 7.83042L1.18398 7.75324L1.14917 7.66195L1.16906 7.55158L1.21298 7.47937L1.50552 7.21547L1.55525 7.14742L1.56353 7.06775L1.51215 6.84866L1.49641 6.66276L1.45166 6.47686L1.25276 6.08433L1.23039 5.72498L1.18232 5.51004L1.04061 5.45361L1 5.35734L1.09779 5.31833L1.38702 5.34821L1.51713 5.41128L1.58011 5.39634L1.53204 5.13244L1.54199 4.8926L1.61657 4.7706L1.64972 4.64944L1.61823 4.45027L1.68867 4.34321L2.19917 4.31582L2.44199 4.35815L2.50994 4.45691L2.45028 4.58388L2.49254 4.7399L2.60359 4.87185L2.69392 4.95567L2.8174 4.96729L2.88536 4.8287L2.82486 4.46022L2.75442 4.2901L2.61934 4.12993L2.47597 4.06022L2.17431 3.97723L2.04834 3.9125L1.9837 3.84942L1.97624 3.80046L2.0268 3.7432L2.11215 3.73407L2.27376 3.68345L2.40884 3.52494L2.37403 3.36643L2.24889 3.15729L2.19586 2.92658L2.2837 2.81455L2.35994 2.80874L2.36657 2.87347L2.36326 2.96061L2.41796 3.03945L2.51409 3.05688L2.60856 2.95148L2.61934 2.81953L2.55304 2.73156L2.52901 2.60873L2.53066 2.52657L3.02293 2.5133L3.10746 2.3191L3.22514 2.23113L3.71906 2.08009L3.86409 2.00789L4.01906 1.96308L4.14834 1.95561L4.65138 1.73569L4.81878 1.72573L4.90249 1.73818L5.02348 1.76639L5.30691 1.78465L5.58204 1.86515L5.74365 2.01121L5.81409 2.05353L5.84309 2.00208V1.94399L5.73453 1.79295L5.77017 1.7L5.92845 1.70166L6.03702 1.83029L6.03619 2.022L6.05608 2.13735Z" fill="black"/>
<path d="M9.52754 5.26086L10.3126 5.20713L10.508 5.23992L11.7279 5.67338L11.8768 5.69888L18.7141 5.47759L18.8714 5.53314L18.9416 5.59871L18.9679 5.63513L19 8.15212L18.9239 8.41439L18.6794 8.87244L18.5153 8.99628L18.2928 9.02178L18.0077 9.18661L17.8537 9.39241L17.7234 10.0098L17.6304 10.2839L17.5204 10.5079L17.3622 10.7156L17.0593 10.9013L14.0273 12.0287L13.1204 11.8038L12.9115 11.812L12.6348 11.9276L12.4623 12.046L12.3362 12.1607L12.1501 12.2746L11.9445 12.3401L11.8303 12.4221L11.8083 12.5432L11.8912 13.6651L11.865 13.8991L11.7449 14.4109L11.6899 14.8507L11.6594 14.9409L11.6679 15.1922L11.7931 15.725H11.788L10.8101 16.03L10.5969 16.0309L9.959 15.8789L9.82618 15.7495L9.79911 15.4144L9.75511 15.3161L9.7052 15.3079L9.3152 15.5392L9.25937 15.6202L9.17815 15.6594L8.79239 15.9417L8.57751 15.9745L8.29918 15.9025L8.28818 16.01L8.35586 16.1803L8.44384 16.2768L8.55636 16.3232L8.68241 16.3487L8.84738 16.4844L8.93028 16.7285L8.86091 16.9743L8.80254 17.3422L8.56059 17.9943L8.53775 18.3075L8.56735 18.5206L8.5682 18.6363L8.48783 18.6645L8.27042 18.7L8.21204 18.639L7.81105 18.3275L7.50226 17.9733L7.34407 17.5317L7.32376 17.2912L7.35253 17.1665L7.36014 16.886L7.09873 15.9526L7.03444 15.5401L7.05136 15.3461L7.14949 15.2715L7.27047 15.2141L7.2637 15.1039L7.17741 14.9846L7.12073 14.8735L7.13342 14.7615L7.24762 14.6759L7.33814 14.4838L7.28569 14.1059L7.13595 13.8126L6.80348 13.5413L6.65205 13.3764L6.28828 13.0714L6.25952 12.7854L6.27559 12.5204L6.21383 12.4139L6.1893 12.3083L6.14531 12.2554L6.07002 12.2345L6.0421 12.1453L6.01334 11.9786L5.90167 11.8739L5.77815 11.8967L5.71471 11.9713L5.59627 12.0141L5.21981 12.0269L5.10729 12.0487L4.78836 12.2737L4.65807 12.3037L4.57009 12.2709L4.42881 12.3055L4.2427 12.2809L4.06758 12.1243L3.89246 12.0205L3.76472 12.0496L3.67504 12.0979L3.57268 12.117L3.37726 12.0897L2.81214 12.4184L2.88913 12.1453L2.95088 12.0433L2.8316 11.8693L2.54481 11.7519L2.29525 11.7701L2.14043 11.6808L2.00169 11.3102L2 11.2747L2.01777 11.1864L2.05668 11.1117L2.12182 11.0662L2.35024 10.9842L2.48136 10.8777L2.53297 10.4424L2.69793 10.2329L3.12346 10.1036L3.19199 10.0599L3.19791 9.99161L3.21398 9.90509L3.50416 9.27676L3.49654 9.1174L3.50839 8.91706L3.57268 8.76953L3.8104 8.55645L4.26554 8.26504L5.45922 7.92629L5.63857 7.80699L5.7993 7.66038L5.9795 7.59846L6.14362 7.59755L6.2206 7.45094L6.49385 6.73791L6.52769 6.51571L6.44648 6.46927L6.38642 6.30809L6.47271 5.57594L6.50654 5.46666L6.61398 5.3501L6.88724 5.2217L7.50565 5.14521L7.7273 5.15796L8.69341 4.8875L9.24752 5.21078L9.52754 5.26086Z" fill="black"/>
</svg>
