<svg width="14" height="18" viewBox="0 0 14 18" fill="none" xmlns="http://www.w3.org/2000/svg">
<path d="M0.398438 1.85C0.398438 1.41239 0.572276 0.99271 0.881711 0.683275C1.19115 0.37384 1.61083 0.200001 2.04844 0.200001H8.64844C9.08605 0.200001 9.50573 0.37384 9.81516 0.683275C10.1246 0.99271 10.2984 1.41239 10.2984 1.85V6.8H11.9484C12.386 6.8 12.8057 6.97384 13.1152 7.28327C13.4246 7.59271 13.5984 8.01239 13.5984 8.45V17.25C13.5984 17.3959 13.5405 17.5358 13.4373 17.6389C13.3342 17.7421 13.1943 17.8 13.0484 17.8H10.2984V13.95C10.2984 13.8041 10.2405 13.6642 10.1373 13.5611C10.0342 13.4579 9.89431 13.4 9.74844 13.4H4.24844C4.10257 13.4 3.96267 13.4579 3.85953 13.5611C3.75638 13.6642 3.69844 13.8041 3.69844 13.95V17.8H0.948438C0.802568 17.8 0.662674 17.7421 0.559529 17.6389C0.456384 17.5358 0.398437 17.3959 0.398438 17.25V1.85ZM3.42344 5.15C3.64224 5.15 3.85208 5.06308 4.0068 4.90836C4.16152 4.75365 4.24844 4.5438 4.24844 4.325C4.24844 4.1062 4.16152 3.89635 4.0068 3.74164C3.85208 3.58692 3.64224 3.5 3.42344 3.5C3.20463 3.5 2.99479 3.58692 2.84007 3.74164C2.68536 3.89635 2.59844 4.1062 2.59844 4.325C2.59844 4.5438 2.68536 4.75365 2.84007 4.90836C2.99479 5.06308 3.20463 5.15 3.42344 5.15ZM4.24844 7.625C4.24844 7.4062 4.16152 7.19635 4.0068 7.04164C3.85208 6.88692 3.64224 6.8 3.42344 6.8C3.20463 6.8 2.99479 6.88692 2.84007 7.04164C2.68536 7.19635 2.59844 7.4062 2.59844 7.625C2.59844 7.8438 2.68536 8.05365 2.84007 8.20836C2.99479 8.36308 3.20463 8.45 3.42344 8.45C3.64224 8.45 3.85208 8.36308 4.0068 8.20836C4.16152 8.05365 4.24844 7.8438 4.24844 7.625ZM3.42344 11.75C3.53178 11.75 3.63906 11.7287 3.73915 11.6872C3.83925 11.6457 3.93019 11.585 4.0068 11.5084C4.08341 11.4318 4.14418 11.3408 4.18564 11.2407C4.2271 11.1406 4.24844 11.0333 4.24844 10.925C4.24844 10.8167 4.2271 10.7094 4.18564 10.6093C4.14418 10.5092 4.08341 10.4182 4.0068 10.3416C3.93019 10.265 3.83925 10.2043 3.73915 10.1628C3.63906 10.1213 3.53178 10.1 3.42344 10.1C3.20463 10.1 2.99479 10.1869 2.84007 10.3416C2.68536 10.4964 2.59844 10.7062 2.59844 10.925C2.59844 11.1438 2.68536 11.3536 2.84007 11.5084C2.99479 11.6631 3.20463 11.75 3.42344 11.75ZM7.54844 4.325C7.54844 4.1062 7.46152 3.89635 7.3068 3.74164C7.15208 3.58692 6.94224 3.5 6.72344 3.5C6.50463 3.5 6.29479 3.58692 6.14007 3.74164C5.98536 3.89635 5.89844 4.1062 5.89844 4.325C5.89844 4.5438 5.98536 4.75365 6.14007 4.90836C6.29479 5.06308 6.50463 5.15 6.72344 5.15C6.94224 5.15 7.15208 5.06308 7.3068 4.90836C7.46152 4.75365 7.54844 4.5438 7.54844 4.325ZM6.72344 8.45C6.94224 8.45 7.15208 8.36308 7.3068 8.20836C7.46152 8.05365 7.54844 7.8438 7.54844 7.625C7.54844 7.4062 7.46152 7.19635 7.3068 7.04164C7.15208 6.88692 6.94224 6.8 6.72344 6.8C6.50463 6.8 6.29479 6.88692 6.14007 7.04164C5.98536 7.19635 5.89844 7.4062 5.89844 7.625C5.89844 7.8438 5.98536 8.05365 6.14007 8.20836C6.29479 8.36308 6.50463 8.45 6.72344 8.45ZM7.54844 10.925C7.54844 10.7062 7.46152 10.4964 7.3068 10.3416C7.15208 10.1869 6.94224 10.1 6.72344 10.1C6.50463 10.1 6.29479 10.1869 6.14007 10.3416C5.98536 10.4964 5.89844 10.7062 5.89844 10.925C5.89844 11.1438 5.98536 11.3536 6.14007 11.5084C6.29479 11.6631 6.50463 11.75 6.72344 11.75C6.94224 11.75 7.15208 11.6631 7.3068 11.5084C7.46152 11.3536 7.54844 11.1438 7.54844 10.925ZM10.0234 11.75C10.1318 11.75 10.2391 11.7287 10.3392 11.6872C10.4392 11.6457 10.5302 11.585 10.6068 11.5084C10.6834 11.4318 10.7442 11.3408 10.7856 11.2407C10.8271 11.1406 10.8484 11.0333 10.8484 10.925C10.8484 10.8167 10.8271 10.7094 10.7856 10.6093C10.7442 10.5092 10.6834 10.4182 10.6068 10.3416C10.5302 10.265 10.4392 10.2043 10.3392 10.1628C10.2391 10.1213 10.1318 10.1 10.0234 10.1C9.80463 10.1 9.59479 10.1869 9.44007 10.3416C9.28536 10.4964 9.19844 10.7062 9.19844 10.925C9.19844 11.1438 9.28536 11.3536 9.44007 11.5084C9.59479 11.6631 9.80463 11.75 10.0234 11.75ZM9.19844 14.5V17.8H7.54844V14.5H9.19844ZM6.44844 14.5H4.79844V17.8H6.44844V14.5Z" fill="#49AFA3"/>
</svg>
