<svg width="20" height="20" viewBox="0 0 20 20" fill="none" xmlns="http://www.w3.org/2000/svg">
<path d="M7.75515 0.0929568L7.79351 0.0903565L7.83328 0.0819061L7.87164 0.0786556L7.95396 0.0994571L8.32438 0.265869L8.47994 0.300322L8.55947 0.306172L8.59784 0.314623L8.6376 0.332824L8.65504 0.351675L8.65574 0.371177L8.65016 0.390678L8.65225 0.41278L8.68992 0.477784L8.69829 0.498586L8.70387 0.54929L8.70457 0.587643L8.71573 0.619495L8.75619 0.650697L8.79665 0.664998L8.98082 0.691L9.01012 0.704001L9.0729 0.745604L9.10569 0.754054L9.31985 0.733903L9.36031 0.715702L9.3924 0.669549L9.41402 0.622745L9.44262 0.583742L9.4789 0.55904L9.52494 0.55579L9.564 0.574641L9.68259 0.672799L9.78444 0.711801L9.83816 0.719602L9.89118 0.714402L9.91141 0.702701L9.92675 0.6858L9.9435 0.672799H9.97L10.0202 0.681899L10.0446 0.679949L10.0698 0.672148L10.1012 0.635746L10.1067 0.594143L10.12 0.575292L10.2616 0.648747L10.4451 0.6884L10.5378 0.728052L10.5713 0.750805L10.6027 0.760555L10.6711 0.770306L10.6976 0.783307L10.775 0.858062L11.0896 1.07063L11.1406 1.07518L11.2731 1.01797L11.3275 1.03162L11.375 1.07388L11.4203 1.13303L11.4315 1.16943L11.4245 1.23119L11.4384 1.26109L11.4447 1.28449L11.4349 1.30919L11.4203 1.3365L11.4126 1.36705L11.4182 1.42555L11.4649 1.61602L11.4922 1.65437L11.64 1.76943L11.6847 1.81558L11.6986 1.83378L11.6958 1.84743L11.6868 1.85653L11.684 1.86433L11.6805 1.88319L11.6735 1.90594L11.6805 1.92544L11.7196 1.93519L11.7349 1.95014L11.7537 1.96444L11.774 1.97354L11.7935 1.97484L11.8682 1.94689L11.903 1.95274L11.9428 1.99239L11.9595 2.0353L11.9707 2.08795L11.9874 2.13345L12.0188 2.15686L12.0412 2.15231L12.0579 2.13605L12.0858 2.0951L12.1081 2.08405L12.1332 2.08535L12.473 2.18936L12.6278 2.31157L12.715 2.35902L12.909 2.39152L12.9976 2.42728L13.0673 2.51503L13.1559 2.6912L13.2654 2.84721L13.5159 3.13258L13.5654 3.20733L13.6338 3.37569L13.6826 3.45565L13.7607 3.4966L14.136 3.4901L14.4667 3.48425L14.9704 3.4758L15.2508 3.47125L15.4929 3.46735L15.61 3.4862L15.7063 3.49855L15.7258 3.59216L15.7454 3.63441L15.7538 3.65977L15.7579 3.69422L15.7544 3.72737L15.7454 3.75792L15.7321 3.78457L15.7175 3.80538L15.7077 3.83463L15.7112 3.86713L15.7258 3.90808L15.6749 4.12845L15.661 4.26301L15.6945 4.34101L15.6875 4.35207L15.6833 4.35987L15.677 4.37872L15.7 4.38782L15.7189 4.40147L15.7335 4.41837L15.7433 4.43462L15.7524 4.46322L15.7565 4.49183L15.7579 4.55488L15.7656 4.58153L15.7998 4.63484L15.8354 4.8045L15.8416 4.8864L15.8451 4.90005L15.841 4.91696L15.8158 4.94751L15.804 4.96636L15.797 4.99041L15.7928 5.01706L15.7914 5.04241L15.7824 5.07167L15.7628 5.08532L15.7405 5.09377L15.7258 5.10612L15.7189 5.13927L15.7272 5.19388L15.7258 5.21923L15.6965 5.24848L15.6484 5.28488L15.6212 5.31739L15.654 5.33104L15.7119 5.33949L15.7593 5.36354L15.8005 5.39929L15.8389 5.44219L15.8633 5.4799L15.8842 5.52605L15.8988 5.5735L15.9093 5.67101L15.9184 5.71196L15.9198 5.75617L15.9044 5.81662L15.9198 5.83677V5.86342L15.9044 5.92778L15.903 5.94273L15.9044 5.99083L15.8975 6.00969L15.8654 6.03959L15.8556 6.05584L15.8619 6.12799L15.894 6.1891L15.9519 6.27295L15.9686 6.29766L15.9937 6.40881L16 6.46342L15.9854 6.51932L15.9533 6.57068L15.8982 6.63373L15.8723 6.68573L15.8514 6.77024L15.8389 6.79819L15.7893 6.8606L15.7754 6.8905L15.7642 6.94575L15.7754 7.08486L15.7565 7.13232L15.7112 7.15702L15.6547 7.16547L15.6045 7.16677L15.5703 7.19277L15.5563 7.25062L15.5549 7.30783L15.5563 7.33383L15.5696 7.34553L15.5807 7.37153L15.5801 7.39754L15.5563 7.40924L15.5424 7.42159L15.5542 7.44824L15.6386 7.5542L15.6449 7.5659L15.64 7.59645L15.6338 7.61985L15.6379 7.64195L15.6624 7.66666L15.6052 7.74206L15.5884 7.78041L15.5745 7.89157L15.5396 7.99233L15.5319 8.04498L15.5242 8.07033L15.4915 8.12104L15.4838 8.15484L15.4859 8.18214L15.4963 8.2322L15.4984 8.2556L15.488 8.34985L15.4691 8.43891L15.3966 8.46101L15.3833 8.50587L15.3373 8.58257L15.2626 8.63717L15.2201 8.68398L15.2166 8.74703L15.225 8.81594L15.2152 8.88159L15.1908 8.91215L15.1629 8.918L15.1322 8.91605L15.0994 8.9206L15.0673 8.9375L15.052 8.9557L15.0401 8.97715L14.9327 9.09156L14.8866 9.12081L14.828 9.13641L14.6983 9.15266L14.6397 9.18061L14.6048 9.23717L14.6299 9.24042L14.6502 9.25082L14.6655 9.26967L14.6857 9.33338L14.7067 9.35158L14.7646 9.37628L14.7932 9.40098L14.8162 9.43153L14.8539 9.50109L15.029 9.7143L15.0555 9.76436L14.8797 9.77346L14.6397 9.78776L14.473 9.79686L14.489 9.85341L14.452 9.89112L14.3397 9.94702L14.2574 10.0276L14.1828 10.118L14.1165 10.2428L14.1019 10.3617L14.106 10.3975H14.1053L13.9212 10.4268L12.4513 10.4307L12.1409 10.3279L11.9093 9.97432L11.7824 9.87292L11.5361 9.95872L11.3171 10.0764L10.616 10.1732L10.5483 10.2434L10.4841 10.287L10.2414 10.2181L9.86537 10.1732L9.7384 10.2187L9.70422 10.2948L9.71747 10.3644L9.80956 10.5035L9.78723 10.6796L9.73771 10.8746L9.76282 10.9916L9.75375 11.097L9.69306 11.2328L9.65748 11.383L9.66864 11.4961L9.73491 11.5559L9.79002 11.5936L9.81444 11.656L9.83467 11.732L10.1925 11.9758L10.1221 12.0974L10.1081 12.1728L9.99023 12.3489L9.8849 12.4491L9.14266 12.9086L8.81479 13.3728L8.73666 13.6835L8.63551 13.8454L8.57621 13.9117L8.51413 13.8701L8.32299 13.5905L8.12278 13.4735L7.97 13.4092L7.9135 13.3682L7.71259 13.261L7.55912 12.9327L7.38263 11.8198L7.28915 11.6514L7.188 11.5312L6.58389 11.6625L6.1151 11.6098L6.00419 11.4467L5.85699 10.6829L5.87653 10.2337L6.1737 9.39773L6.33484 9.12666L7.27102 8.50782L7.49983 8.2985L7.53192 8.12689L7.45099 7.95723L6.76177 7.46384L6.49878 7.39949L5.90443 7.5425L4.96547 7.95853L4 8.19384L4.37949 7.75506L4.68434 7.49504L4.95291 7.34553L5.45169 7.17067L5.52354 7.11802L5.624 6.90025L6.03488 6.24045L6.07115 6.05129L5.91629 5.88488L5.35612 5.4578L5.29194 5.30503L5.21521 4.97611L5.17056 4.46452L5.20544 4.1668L5.30101 3.99649L5.36449 3.74102L5.30659 3.5252L5.21102 3.4719L5.13568 3.4693L5.08894 3.48165L5.09662 3.4069L5.07848 3.30939L5.09732 3.18458L5.23334 3.01492L5.80258 2.58394L6.17928 2.60084L7.74398 3.41145L8.39833 3.50505L8.57691 3.4641L8.6655 3.38609L8.74433 3.17158L8.7248 3.08577L8.64039 3.03897L8.6097 2.99542L8.62504 2.91871L8.76526 2.77765L8.75619 2.71395L8.67806 2.67884L8.63062 2.61124L8.61039 2.54038L8.5797 2.55338L8.54552 2.63659L8.48274 2.64569L8.44018 2.56834L8.37461 2.50073L8.25881 2.42598L8.24765 2.32977L8.34391 2.21861L8.48553 1.82793L8.57063 1.71677L8.59435 1.63487L8.59644 1.57961L8.61807 1.53151L8.68015 1.46001L8.73247 1.37095L8.71782 1.25979L8.65295 1.13563L8.43879 0.948418L8.38437 0.83271L8.35438 0.737803L8.30973 0.6858L7.25009 0.638996L7.1601 0.578542L7.19847 0.482335L7.22567 0.378978L7.22497 0.257419L7.31427 0.172912L7.60098 0.00780074L7.60935 0.00845043L7.64772 0L7.66725 0.00455031L7.68399 0.0201513L7.70562 0.0624045L7.71957 0.0793058L7.75515 0.0929568Z" fill="black"/>
<path d="M12.4466 10.4307L13.9164 10.4268L14.1006 10.3975H14.1013L14.1271 10.6276L14.1948 11.0333L14.1899 11.1373L14.1166 11.2907L14.0978 11.3778L14.1564 11.5708L14.3057 11.7041L14.4961 11.7782L14.681 11.7912L14.8547 11.7828L14.9461 11.7893L15.0256 11.8075L15.0619 11.8276L15.1017 11.8614L15.1226 11.8991L15.1205 11.903L15.1023 11.9323L15.0675 11.944L14.9552 11.9511L14.9133 11.9771L14.9063 12.0148L14.9147 12.059L14.9189 12.1045L14.9063 12.1572L14.8812 12.1871L14.8038 12.2326L14.7361 12.2891L14.6461 12.4029L14.531 12.5485L14.4027 12.7104L14.2883 12.8547L14.2736 12.8917L14.2771 13.0998L14.312 13.2675L14.3796 13.4826L14.4592 13.7362L14.5415 13.9975L14.6287 14.2731L14.725 14.5754L14.8289 14.9368L14.9091 15.2157L14.9042 15.4276L14.8721 15.6343L14.8582 15.6778L14.7961 15.752L14.778 15.7923L14.7863 15.8079L14.8059 15.8189L14.8198 15.8332L14.7996 15.8904L14.8045 15.9171L14.8163 15.9424L14.8254 15.9704L14.8296 16.0269L14.8122 16.1868L14.817 16.3123L14.8498 16.5522L14.8198 16.7433L14.8254 16.8037L14.861 16.9285L14.8889 17.171L14.967 17.2016L15.2056 17.2341L15.6018 17.2887H15.6053L15.6486 17.4388L15.6158 17.7495L15.4644 18.0889L15.3521 18.4659L15.3033 19.1361L15.313 19.3311L15.433 19.8277L15.4288 19.9071L15.3919 19.9604L15.3116 19.9896L14.9907 20L14.7968 19.8453L14.425 19.3506L14.1341 19.1504L13.915 19.0945L13.8613 19.0542L13.7783 18.9716L13.6493 18.9502L11.8767 19.4195L11.8027 19.4527L10.8596 18.1714L10.5213 17.9355L7.83203 16.8024L7.86552 16.7517L7.98899 16.4547L8.23175 16.1036L8.31895 15.8768L8.63357 15.4835L8.67263 15.3619L8.69356 15.2339L8.74727 15.0889L8.75286 14.9459L8.65798 14.7996L8.58613 14.6534L8.58194 14.5747L8.51288 14.5013L8.47661 14.4408L8.45987 14.383L8.50033 14.2893L8.56381 14.1931L8.58334 14.1119L8.57148 13.9117L8.63078 13.8454L8.73193 13.6835L8.81006 13.3728L9.13793 12.9086L9.88017 12.4491L9.9855 12.349L10.1034 12.1728L10.1173 12.0974L10.1878 11.9758L9.82994 11.7321L9.80971 11.656L9.78529 11.5936L9.73018 11.5559L9.66391 11.4961L9.65275 11.383L9.68833 11.2328L9.74902 11.097L9.75809 10.9917L9.73297 10.8746L9.7825 10.6796L9.80483 10.5035L9.71274 10.3644L9.69949 10.2948L9.73367 10.2187L9.86063 10.1732L10.2366 10.2181L10.4794 10.287L10.5436 10.2435L10.6112 10.1732L11.3123 10.0764L11.5314 9.95873L11.7776 9.87292L11.9046 9.97433L12.1362 10.328L12.4466 10.4307Z" fill="black"/>
</svg>
