<svg width="18" height="18" viewBox="0 0 18 18" fill="none" xmlns="http://www.w3.org/2000/svg">
<path d="M15.75 16.5H2.25C1.9425 16.5 1.6875 16.245 1.6875 15.9375C1.6875 15.63 1.9425 15.375 2.25 15.375H15.75C16.0575 15.375 16.3125 15.63 16.3125 15.9375C16.3125 16.245 16.0575 16.5 15.75 16.5Z" fill="white"/>
<path d="M14.2649 2.61024C12.8099 1.15524 11.3849 1.11774 9.89243 2.61024L8.98493 3.51774C8.90993 3.59274 8.87993 3.71274 8.90993 3.81774C9.47993 5.80524 11.0699 7.39524 13.0574 7.96524C13.0874 7.97274 13.1174 7.98024 13.1474 7.98024C13.2299 7.98024 13.3049 7.95024 13.3649 7.89024L14.2649 6.98274C15.0074 6.24774 15.3674 5.53524 15.3674 4.81524C15.3749 4.07274 15.0149 3.35274 14.2649 2.61024Z" fill="white"/>
<path d="M11.7043 8.6476C11.4868 8.5426 11.2768 8.4376 11.0743 8.3176C10.9093 8.2201 10.7518 8.1151 10.5943 8.0026C10.4668 7.9201 10.3168 7.8001 10.1743 7.6801C10.1593 7.6726 10.1068 7.6276 10.0468 7.5676C9.79932 7.3576 9.52182 7.0876 9.27432 6.7876C9.25182 6.7726 9.21432 6.7201 9.16182 6.6526C9.08682 6.5626 8.95932 6.4126 8.84682 6.2401C8.75682 6.1276 8.65182 5.9626 8.55432 5.7976C8.43432 5.5951 8.32932 5.3926 8.22432 5.1826C8.08665 4.88759 7.69946 4.79996 7.46927 5.03015L3.25182 9.2476C3.15432 9.3451 3.06432 9.5326 3.04182 9.6601L2.63682 12.5326C2.56182 13.0426 2.70432 13.5226 3.01932 13.8451C3.28932 14.1076 3.66432 14.2501 4.06932 14.2501C4.15932 14.2501 4.24932 14.2426 4.33932 14.2276L7.21932 13.8226C7.35432 13.8001 7.54182 13.7101 7.63182 13.6126L11.8562 9.38819C12.0818 9.1626 11.9971 8.77445 11.7043 8.6476Z" fill="white"/>
</svg>
