<svg width="24" height="24" viewBox="0 0 24 24" fill="none" xmlns="http://www.w3.org/2000/svg">
<path d="M12 22H4.22222C3.63285 22 3.06762 21.7556 2.65087 21.3204C2.23413 20.8853 2 20.2952 2 19.6798V11.8689C2 11.2395 2.12264 10.6167 2.36045 10.0383C2.59826 9.45995 2.94628 8.93815 3.38333 8.50464L10.47 2.63805C10.883 2.22841 11.4309 2 12.0006 2C12.5702 2 13.1181 2.22841 13.5311 2.63805L20.6167 8.50464C21.0537 8.93815 21.4017 9.45995 21.6396 10.0383C21.8774 10.6167 22 11.2395 22 11.8689V19.6798C22 20.2952 21.7659 20.8853 21.3491 21.3204C20.9324 21.7556 20.3671 22 19.7778 22H12ZM12 22V16.1995" stroke="#A7B3BF" stroke-width="1.7" stroke-linecap="round" stroke-linejoin="round"/>
</svg>
