<svg width="20" height="20" viewBox="0 0 20 20" fill="none" xmlns="http://www.w3.org/2000/svg">
<path d="M9.59175 11.1158L9.94445 10.939L10.6105 9.94761L11.0813 9.49002L11.4204 9.54583L11.7852 9.7337L12.2469 9.83972L12.8327 10.2303L13.2233 10.3308L13.4942 10.2843L13.6592 10.1634L13.8817 10.2266L14.3419 10.6191L14.5039 11.4896L14.5705 12.2709L14.4055 12.9666L13.5911 13.8799L13.0825 14.2147L12.4982 14.4528L12.0834 14.4323L10.9284 14.0194L10.5378 14.0082L10.1639 13.8501L9.22845 13.147L8.94537 12.8438L8.63959 12.8233L8.52909 12.775L8.46703 12.6987L8.37166 12.6448L8.28689 12.7564L8.21725 13.4669L8.12037 13.932L8.08859 14.2854L8.12794 14.6146L8.7062 15.5595L8.9378 16.0785L8.87423 16.5528L8.61083 17.0532L8.45491 17.6708L8.43523 18L5.51217 15.8572L4.28148 15.4014L2.80859 15.381V15.3605L3.25212 13.5953L3.2491 13.054L3.1174 12.7396L2.87974 12.375L3.01447 11.99L3.34598 11.7389L3.61391 11.3334L3.75923 10.8628L4.21487 10.8312L4.27694 10.4554L4.29662 9.95319L4.60694 9.51421L5.0202 9.32633L5.43496 9.38772L5.72409 9.16823V8.72924L5.74074 8.4L6.29478 8.80178L7.08042 8.88363L7.77826 9.22031L8.30203 8.84932L8.59872 9.5357L8.7834 9.79611L8.93629 9.90772L9.18757 11.086L9.59175 11.1158Z" fill="black"/>
<path d="M17.9341 3.36716L17.9415 3.46988L17.9974 3.66599L18.1709 4.04887L19.2707 4.89494L19.7971 5.58599L20 5.98008L19.4986 6.17058L19.084 6.48062L18.7105 6.95875L18.534 7.39393L18.4238 7.86832L18.3444 8.49961L18.1473 8.7891L17.6371 9.36809L17.5224 9.58288L17.4607 9.77899L17.3431 9.98817L17.1269 10.2328L16.774 10.4756L16.3932 10.6325L16.1447 10.6755L15.983 10.5616L15.7242 10.6736L15.4081 10.9052L15.1728 10.9893L14.6685 11.0602L14.595 11.1013L14.148 10.7072L13.9318 10.6437L13.7716 10.7651L13.5084 10.8118L13.129 10.711L12.56 10.3188L12.1115 10.2123L11.7572 10.0237L11.4278 9.96763L10.9705 10.4271L10.3236 11.4226L9.98096 11.6L9.58838 11.5701L9.3443 11.4581L9.19579 11.346L9.01641 11.0845L8.72822 10.3953L8.21947 9.69681L7.54164 9.35875L6.77852 9.27658L6.24037 8.87315L5.91689 8.38755L5.10084 8.15782L4.89205 8.04202L4.70237 7.81977L4.61268 7.65354L4.29508 7.49292L3.47315 7.2856L3.46727 7.12872L3.40992 6.9158L2.60269 6.13323L2.32774 5.94272L1 4.51953L1.25878 4.30475L1.56462 3.61183L1.67343 2.95626L1.87339 2.70412L2.13218 2.52669L2.30274 2.22786L2.35126 2.02615L2.3542 2L2.59093 2.20358L2.69533 2.23533L2.76443 2.27455L2.91147 2.47813L2.98499 2.55844L3.77016 3.10381L4.4877 3.75004L4.90528 3.99284L6.29477 4.34397L7.18287 4.67082L8.10331 4.88187L8.98994 5.20872L9.91186 5.0537L10.7308 4.67082L11.5866 4.40187L12.4732 4.18708L13.3231 3.96669L14.1759 3.64358L14.9978 3.32047L16.6505 2.84794L16.874 2.80125L18.834 2.6593L19.1913 2.5491L19.4339 2.28949L19.4221 2.59019L19.1413 2.71533L18.787 2.77136L18.559 2.86101L18.4958 2.90023L18.4252 2.88716L18.2914 2.833L18.2165 2.84794L18.0797 2.91704L18.0018 2.93759L17.7107 2.88716H17.4548L17.4945 2.97681L17.5636 3.00482L17.7283 2.99549L17.6283 3.03844L17.5886 3.04405L17.7092 3.24949L17.9136 3.36342L17.9341 3.36716Z" fill="black"/>
</svg>
