<svg width="22" height="22" viewBox="0 0 22 22" fill="none" xmlns="http://www.w3.org/2000/svg">
<path fill-rule="evenodd" clip-rule="evenodd" d="M17.1508 8.06328C17.1508 9.21455 17.455 9.89313 18.1247 10.6751C18.6321 11.2512 18.7943 11.9907 18.7943 12.793C18.7943 13.5944 18.531 14.3551 18.0035 14.9728C17.3129 15.7132 16.339 16.1859 15.3451 16.268C13.9047 16.3908 12.4635 16.4942 11.0031 16.4942C9.54175 16.4942 8.1014 16.4324 6.66104 16.268C5.66619 16.1859 4.69229 15.7132 4.00263 14.9728C3.47514 14.3551 3.21094 13.5944 3.21094 12.793C3.21094 11.9907 3.37401 11.2512 3.88055 10.6751C4.57112 9.89313 4.85536 9.21455 4.85536 8.06328V7.67276C4.85536 6.13096 5.23982 5.12279 6.03152 4.13585C7.20858 2.69653 9.09534 1.83331 10.9621 1.83331H11.0441C12.9509 1.83331 14.8987 2.73808 16.0557 4.23926C16.8064 5.20588 17.1508 6.17158 17.1508 7.67276V8.06328ZM8.32014 18.3891C8.32014 17.9275 8.74377 17.716 9.13552 17.6256C9.59377 17.5286 12.3861 17.5286 12.8444 17.6256C13.2361 17.716 13.6597 17.9275 13.6597 18.3891C13.637 18.8285 13.3791 19.2181 13.0229 19.4656C12.561 19.8256 12.019 20.0537 11.4523 20.1358C11.1389 20.1765 10.831 20.1774 10.5285 20.1358C9.96092 20.0537 9.41885 19.8256 8.95787 19.4646C8.60074 19.2181 8.34292 18.8285 8.32014 18.3891Z" fill="#0B0D18"/>
</svg>
