<svg width="20" height="20" viewBox="0 0 20 20" fill="none" xmlns="http://www.w3.org/2000/svg">
<path d="M19.1357 1.66667C19.3567 1.66667 19.5687 1.57887 19.7249 1.42259C19.8812 1.26631 19.969 1.05435 19.969 0.833333C19.969 0.61232 19.8812 0.400358 19.7249 0.244078C19.5687 0.0877973 19.3567 0 19.1357 0C18.9147 0 18.7027 0.0877973 18.5464 0.244078C18.3901 0.400358 18.3023 0.61232 18.3023 0.833333C18.3023 1.05435 18.3901 1.26631 18.5464 1.42259C18.7027 1.57887 18.9147 1.66667 19.1357 1.66667ZM19.1357 4.44444C19.2451 4.44444 19.3535 4.42289 19.4546 4.38101C19.5557 4.33913 19.6476 4.27775 19.7249 4.20037C19.8023 4.12298 19.8637 4.03112 19.9056 3.93001C19.9475 3.82891 19.969 3.72055 19.969 3.61111C19.969 3.50168 19.9475 3.39331 19.9056 3.29221C19.8637 3.1911 19.8023 3.09924 19.7249 3.02186C19.6476 2.94447 19.5557 2.88309 19.4546 2.84121C19.3535 2.79933 19.2451 2.77778 19.1357 2.77778C18.9147 2.77778 18.7027 2.86558 18.5464 3.02186C18.3901 3.17814 18.3023 3.3901 18.3023 3.61111C18.3023 3.83212 18.3901 4.04409 18.5464 4.20037C18.7027 4.35665 18.9147 4.44444 19.1357 4.44444ZM19.969 6.38889C19.969 6.6099 19.8812 6.82186 19.7249 6.97814C19.5687 7.13442 19.3567 7.22222 19.1357 7.22222C18.9147 7.22222 18.7027 7.13442 18.5464 6.97814C18.3901 6.82186 18.3023 6.6099 18.3023 6.38889C18.3023 6.16788 18.3901 5.95591 18.5464 5.79963C18.7027 5.64335 18.9147 5.55556 19.1357 5.55556C19.3567 5.55556 19.5687 5.64335 19.7249 5.79963C19.8812 5.95591 19.969 6.16788 19.969 6.38889ZM19.1357 9.08333C19.283 9.08333 19.4243 9.0248 19.5285 8.92062C19.6327 8.81643 19.6912 8.67512 19.6912 8.52778C19.6912 8.38044 19.6327 8.23913 19.5285 8.13494C19.4243 8.03075 19.283 7.97222 19.1357 7.97222C18.9883 7.97222 18.847 8.03075 18.7428 8.13494C18.6387 8.23913 18.5801 8.38044 18.5801 8.52778C18.5801 8.67512 18.6387 8.81643 18.7428 8.92062C18.847 9.0248 18.9883 9.08333 19.1357 9.08333ZM17.0173 1.06778C17.0347 1.17705 17.0302 1.2887 17.004 1.39619C16.9778 1.50369 16.9304 1.60489 16.8646 1.69389C16.7989 1.78289 16.7161 1.8579 16.621 1.91456C16.526 1.97121 16.4206 2.00837 16.3111 2.02386C16.2015 2.03935 16.0899 2.03287 15.9829 2.0048C15.8759 1.97672 15.7755 1.92761 15.6877 1.86033C15.5998 1.79305 15.5263 1.70895 15.4713 1.61294C15.4163 1.51693 15.3809 1.41092 15.3673 1.30111C15.3405 1.08425 15.3999 0.865526 15.5328 0.692045C15.6656 0.518563 15.8613 0.404209 16.0777 0.373612C16.294 0.343016 16.5138 0.398626 16.6895 0.528464C16.8653 0.658302 16.983 0.851979 17.0173 1.06778ZM16.6985 4.76C16.8083 4.74641 16.9143 4.71108 17.0103 4.65608C17.1063 4.60109 17.1904 4.52752 17.2577 4.43967C17.325 4.35182 17.3741 4.25146 17.4021 4.14443C17.4302 4.0374 17.4367 3.92585 17.4212 3.81629C17.4057 3.70674 17.3686 3.60136 17.3119 3.50631C17.2552 3.41127 17.1802 3.32845 17.0912 3.26271C17.0022 3.19696 16.901 3.1496 16.7935 3.12338C16.686 3.09716 16.5744 3.09261 16.4651 3.11C16.2493 3.14434 16.0556 3.26207 15.9258 3.43782C15.796 3.61358 15.7404 3.8333 15.771 4.04966C15.8016 4.26602 15.9159 4.46171 16.0894 4.59457C16.2629 4.72744 16.4816 4.78684 16.6985 4.76ZM17.7962 6.56889C17.8136 6.67816 17.8091 6.78981 17.7829 6.89731C17.7566 7.0048 17.7093 7.10601 17.6435 7.195C17.5778 7.284 17.495 7.35902 17.3999 7.41567C17.3049 7.47232 17.1995 7.50948 17.0899 7.52497C16.9804 7.54046 16.8688 7.53398 16.7618 7.50591C16.6548 7.47783 16.5544 7.42872 16.4666 7.36144C16.3787 7.29417 16.3051 7.21007 16.2502 7.11405C16.1952 7.01804 16.1598 6.91203 16.1462 6.80222C16.1194 6.58536 16.1788 6.36664 16.3117 6.19316C16.4445 6.01967 16.6402 5.90532 16.8566 5.87472C17.0729 5.84413 17.2927 5.89974 17.4684 6.02958C17.6442 6.15941 17.7619 6.35309 17.7962 6.56889ZM17.4773 10.2611C17.5872 10.2475 17.6932 10.2122 17.7892 10.1572C17.8852 10.1022 17.9693 10.0286 18.0366 9.94078C18.1038 9.85293 18.153 9.75257 18.181 9.64554C18.2091 9.53851 18.2156 9.42697 18.2001 9.31741C18.1846 9.20785 18.1474 9.10247 18.0908 9.00742C18.0341 8.91238 17.9591 8.82957 17.8701 8.76382C17.7811 8.69807 17.6799 8.65071 17.5724 8.62449C17.4649 8.59827 17.3533 8.59372 17.244 8.61111C17.0282 8.64545 16.8345 8.76318 16.7047 8.93893C16.5749 9.11469 16.5193 9.33441 16.5498 9.55077C16.5804 9.76714 16.6948 9.96282 16.8683 10.0957C17.0418 10.2285 17.2605 10.288 17.4773 10.2611ZM13.3273 2.01667C13.3738 2.11671 13.4 2.22498 13.4043 2.3352C13.4086 2.44543 13.391 2.55542 13.3525 2.65878C13.314 2.76215 13.2553 2.85685 13.1799 2.93737C13.1045 3.0179 13.0139 3.08266 12.9133 3.12789C12.8127 3.17312 12.7041 3.19792 12.5938 3.20086C12.4836 3.20381 12.3738 3.18482 12.2709 3.14502C12.168 3.10522 12.0741 3.04538 11.9945 2.96899C11.9149 2.8926 11.8513 2.80117 11.8073 2.7C11.72 2.49896 11.7153 2.27158 11.7944 2.06714C11.8735 1.86269 12.03 1.69765 12.2299 1.60777C12.4299 1.51788 12.6572 1.5104 12.8626 1.58694C13.068 1.66347 13.235 1.81787 13.3273 2.01667ZM14.0473 5.65222C14.1485 5.60825 14.2399 5.54463 14.3163 5.46505C14.3927 5.38548 14.4526 5.29152 14.4924 5.18864C14.5322 5.08576 14.5512 4.97601 14.5482 4.86573C14.5453 4.75546 14.5205 4.64687 14.4752 4.54626C14.43 4.44565 14.3652 4.35502 14.2847 4.27963C14.2042 4.20424 14.1095 4.14558 14.0061 4.10707C13.9028 4.06855 13.7928 4.05094 13.6826 4.05526C13.5723 4.05958 13.4641 4.08574 13.364 4.13222C13.1652 4.2246 13.0108 4.39158 12.9343 4.597C12.8577 4.80241 12.8652 5.02971 12.9551 5.22965C13.045 5.42958 13.21 5.58605 13.4145 5.66515C13.6189 5.74425 13.8463 5.7396 14.0473 5.65222ZM15.6046 7.08444C15.6511 7.18448 15.6772 7.29275 15.6815 7.40298C15.6858 7.51321 15.6682 7.62319 15.6297 7.72656C15.5912 7.82993 15.5326 7.92462 15.4572 8.00515C15.3818 8.08568 15.2911 8.15043 15.1905 8.19566C15.0899 8.24089 14.9813 8.2657 14.8711 8.26864C14.7608 8.27158 14.651 8.2526 14.5481 8.2128C14.4453 8.173 14.3513 8.11316 14.2717 8.03677C14.1922 7.96038 14.1285 7.86895 14.0846 7.76778C13.9972 7.56674 13.9925 7.33936 14.0716 7.13492C14.1507 6.93047 14.3072 6.76543 14.5071 6.67555C14.7071 6.58566 14.9344 6.57818 15.1398 6.65472C15.3452 6.73125 15.5122 6.88565 15.6046 7.08444ZM15.844 9.77111C15.9115 9.7418 15.9724 9.69938 16.0233 9.64633C16.0743 9.59328 16.1142 9.53065 16.1407 9.46206C16.1672 9.39347 16.1799 9.3203 16.1779 9.24679C16.176 9.17327 16.1594 9.10088 16.1293 9.0338C16.0991 8.96673 16.0559 8.90631 16.0023 8.85605C15.9486 8.80579 15.8854 8.76668 15.8165 8.74101C15.7476 8.71533 15.6743 8.70359 15.6008 8.70647C15.5273 8.70935 15.4552 8.72679 15.3885 8.75778C15.2559 8.81936 15.153 8.93068 15.102 9.06763C15.0509 9.20457 15.0559 9.3561 15.1159 9.4894C15.1758 9.62269 15.2858 9.727 15.4221 9.77973C15.5584 9.83246 15.71 9.82936 15.844 9.77111Z" fill="#DE2A4B"/>
<path fill-rule="evenodd" clip-rule="evenodd" d="M9.42945 3.83888C9.50765 3.93022 9.56515 4.03739 9.59802 4.15304C9.63089 4.26869 9.63835 4.39008 9.61987 4.50889C9.6014 4.62769 9.55744 4.74109 9.49101 4.8413C9.42457 4.94151 9.33724 5.02616 9.23501 5.08944L10.0861 6.06111C10.1523 5.94598 10.245 5.84833 10.3566 5.77629C10.4681 5.70426 10.5953 5.65993 10.7274 5.64699C10.8596 5.63406 10.9929 5.65289 11.1164 5.70193C11.2398 5.75097 11.3497 5.82879 11.4369 5.9289C11.5241 6.02902 11.5862 6.14853 11.6179 6.27749C11.6496 6.40644 11.65 6.5411 11.6191 6.67025C11.5882 6.7994 11.5269 6.91929 11.4403 7.01994C11.3536 7.12059 11.2442 7.19909 11.1211 7.24889L11.9045 8.15111C11.973 8.03942 12.0669 7.94547 12.1786 7.87689C12.2902 7.80831 12.4165 7.76702 12.5471 7.75639C12.6777 7.74576 12.809 7.76608 12.9303 7.8157C13.0515 7.86532 13.1594 7.94284 13.2451 8.04197C13.3308 8.1411 13.3919 8.25904 13.4235 8.38622C13.4551 8.5134 13.4562 8.64623 13.4268 8.77393C13.3974 8.90163 13.3383 9.0206 13.2543 9.12118C13.1703 9.22175 13.0638 9.3011 12.9433 9.35277L13.7167 10.2506C13.7866 10.1409 13.8812 10.0491 13.9929 9.9826C14.1046 9.91605 14.2304 9.87657 14.3601 9.86732C14.4898 9.85807 14.6198 9.8793 14.7399 9.92932C14.8599 9.97933 14.9666 10.0567 15.0513 10.1554C15.1361 10.254 15.1966 10.3711 15.228 10.4972C15.2594 10.6234 15.2609 10.7552 15.2322 10.8821C15.2036 11.0089 15.1457 11.1273 15.0631 11.2277C14.9805 11.3282 14.8756 11.4079 14.7567 11.4606L14.7606 11.465C13.4582 12.2601 12.355 13.3426 11.5355 14.6298C10.7161 15.917 10.202 17.3746 10.0328 18.8911C9.96557 19.5011 9.4739 20 8.86056 20H1.08223C0.468343 20 -0.0327686 19.5022 0.00167581 18.8894C0.165461 15.9441 0.97875 13.0715 2.38326 10.4774C3.78777 7.88335 5.74871 5.6321 8.12556 3.885C8.16223 3.83537 8.20501 3.78944 8.2539 3.74722C8.3371 3.67611 8.4335 3.62209 8.53758 3.58825C8.64166 3.5544 8.75139 3.54138 8.8605 3.54995C8.96961 3.55851 9.07597 3.58849 9.1735 3.63816C9.27102 3.68783 9.35781 3.75623 9.4289 3.83944M10.5789 8.745L10.1772 9.12833C9.87595 9.41652 9.58681 9.71716 9.31057 10.0294L8.94223 10.445L8.11056 9.70833L8.4789 9.29277C8.77568 8.95738 9.08632 8.63451 9.41001 8.325L9.81223 7.94166L10.5789 8.745ZM8.10557 11.5611L7.80834 12.0306C7.36183 12.7382 6.96924 13.4784 6.6339 14.245L6.41168 14.7539L5.39334 14.3094L5.61556 13.8C5.97373 12.9816 6.39306 12.1914 6.87001 11.4361L7.16668 10.9667L8.10557 11.5611ZM5.94668 16.0767L5.80112 16.6128C5.69149 17.0154 5.59649 17.4233 5.51612 17.8367L5.40945 18.3817L4.3189 18.1689L4.42556 17.6233C4.51112 17.1841 4.61223 16.7502 4.7289 16.3217L4.87445 15.7856L5.94668 16.0767Z" fill="#DE2A4B"/>
<path d="M11.9533 4.27277C11.9533 4.40074 11.9024 4.52346 11.812 4.61395C11.7215 4.70443 11.5987 4.75527 11.4708 4.75527C11.3428 4.75527 11.2201 4.70443 11.1296 4.61395C11.0391 4.52346 10.9883 4.40074 10.9883 4.27277C10.9883 4.1448 11.0391 4.02208 11.1296 3.93159C11.2201 3.8411 11.3428 3.79027 11.4708 3.79027C11.5987 3.79027 11.7215 3.8411 11.812 3.93159C11.9024 4.02208 11.9533 4.1448 11.9533 4.27277ZM12.9116 7.16777C13.0395 7.16777 13.1622 7.11696 13.2526 7.02653C13.343 6.93609 13.3938 6.81344 13.3938 6.68555C13.3938 6.55765 13.343 6.435 13.2526 6.34456C13.1622 6.25413 13.0395 6.20332 12.9116 6.20332C12.7837 6.20332 12.6611 6.25413 12.5706 6.34456C12.4802 6.435 12.4294 6.55765 12.4294 6.68555C12.4294 6.81344 12.4802 6.93609 12.5706 7.02653C12.6611 7.11696 12.7837 7.16777 12.9116 7.16777ZM15.8516 5.51166C15.8516 5.57498 15.8391 5.63769 15.8149 5.6962C15.7907 5.7547 15.7552 5.80786 15.7104 5.85264C15.6656 5.89742 15.6124 5.93294 15.5539 5.95717C15.4954 5.98141 15.4327 5.99388 15.3694 5.99388C15.3061 5.99388 15.2434 5.98141 15.1849 5.95717C15.1263 5.93294 15.0732 5.89742 15.0284 5.85264C14.9836 5.80786 14.9481 5.7547 14.9239 5.6962C14.8996 5.63769 14.8872 5.57498 14.8872 5.51166C14.8872 5.38376 14.938 5.26111 15.0284 5.17067C15.1188 5.08024 15.2415 5.02944 15.3694 5.02944C15.4973 5.02944 15.6199 5.08024 15.7104 5.17067C15.8008 5.26111 15.8516 5.38376 15.8516 5.51166ZM18.0111 5.55555C18.139 5.55555 18.2616 5.50474 18.352 5.41431C18.4425 5.32387 18.4933 5.20122 18.4933 5.07332C18.4933 4.94543 18.4425 4.82278 18.352 4.73234C18.2616 4.64191 18.139 4.5911 18.0111 4.5911C17.8832 4.5911 17.7605 4.64191 17.6701 4.73234C17.5796 4.82278 17.5288 4.94543 17.5288 5.07332C17.5288 5.20122 17.5796 5.32387 17.6701 5.41431C17.7605 5.50474 17.8832 5.55555 18.0111 5.55555ZM15.2955 2.97777C15.2955 3.10574 15.2447 3.22846 15.1542 3.31895C15.0637 3.40943 14.941 3.46027 14.813 3.46027C14.685 3.46027 14.5623 3.40943 14.4718 3.31895C14.3813 3.22846 14.3305 3.10574 14.3305 2.97777C14.3305 2.8498 14.3813 2.72708 14.4718 2.63659C14.5623 2.5461 14.685 2.49527 14.813 2.49527C14.941 2.49527 15.0637 2.5461 15.1542 2.63659C15.2447 2.72708 15.2955 2.8498 15.2955 2.97777ZM17.8255 2.77777C17.9534 2.77777 18.0761 2.72696 18.1665 2.63653C18.2569 2.54609 18.3077 2.42344 18.3077 2.29555C18.3077 2.16765 18.2569 2.045 18.1665 1.95456C18.0761 1.86413 17.9534 1.81332 17.8255 1.81332C17.6976 1.81332 17.575 1.86413 17.4845 1.95456C17.3941 2.045 17.3433 2.16765 17.3433 2.29555C17.3433 2.42344 17.3941 2.54609 17.4845 2.63653C17.575 2.72696 17.6976 2.77777 17.8255 2.77777Z" fill="#DE2A4B"/>
</svg>
