<svg width="10" height="11" viewBox="0 0 10 11" fill="none" xmlns="http://www.w3.org/2000/svg">
<path d="M5 0C6.19347 0 7.33807 0.474106 8.18198 1.31802C9.02589 2.16193 9.5 3.30653 9.5 4.5C9.5 6.037 8.662 7.295 7.779 8.1975C7.33784 8.64353 6.85646 9.04791 6.341 9.4055L6.128 9.5505L6.028 9.617L5.8395 9.737L5.6715 9.8395L5.4635 9.9605C5.32232 10.0411 5.16256 10.0835 5 10.0835C4.83744 10.0835 4.67768 10.0411 4.5365 9.9605L4.3285 9.8395L4.0685 9.6795L3.9725 9.617L3.7675 9.4805C3.21142 9.10426 2.69345 8.67455 2.221 8.1975C1.338 7.2945 0.5 6.037 0.5 4.5C0.5 3.30653 0.974106 2.16193 1.81802 1.31802C2.66193 0.474106 3.80653 0 5 0ZM5 3C4.80302 3 4.60796 3.0388 4.42597 3.11418C4.24399 3.18956 4.07863 3.30005 3.93934 3.43934C3.80005 3.57863 3.68956 3.74399 3.61418 3.92597C3.5388 4.10796 3.5 4.30302 3.5 4.5C3.5 4.69698 3.5388 4.89204 3.61418 5.07403C3.68956 5.25601 3.80005 5.42137 3.93934 5.56066C4.07863 5.69995 4.24399 5.81044 4.42597 5.88582C4.60796 5.9612 4.80302 6 5 6C5.39782 6 5.77936 5.84196 6.06066 5.56066C6.34196 5.27936 6.5 4.89782 6.5 4.5C6.5 4.10218 6.34196 3.72064 6.06066 3.43934C5.77936 3.15804 5.39782 3 5 3Z" fill="#F36235"/>
</svg>
