<svg width="32" height="32" viewBox="0 0 32 32" fill="none" xmlns="http://www.w3.org/2000/svg">
<path d="M15.4107 18.196L15.3 18.2893L6.06267 27.3587C6.74538 27.779 7.5316 28.0011 8.33333 28H23.6667C24.5 28 25.2773 27.7653 25.9373 27.3587L16.7 18.2907L16.576 18.1867C16.4052 18.0662 16.2009 18.0024 15.9918 18.004C15.7828 18.0057 15.5796 18.0728 15.4107 18.196ZM28 8.33333C28 7.18406 27.5435 6.08186 26.7308 5.2692C25.9181 4.45655 24.8159 4 23.6667 4H8.33333C7.18406 4 6.08186 4.45655 5.2692 5.2692C4.45655 6.08186 4 7.18406 4 8.33333V23.6667C4 24.5027 4.23733 25.284 4.64667 25.9467L13.8987 16.864L14.0787 16.7C14.6196 16.249 15.3019 16.0026 16.0061 16.0041C16.7104 16.0056 17.3917 16.2547 17.9307 16.708L18.1013 16.864L27.3533 25.9453C27.777 25.2609 28.001 24.4716 28 23.6667V8.33333ZM20.3333 14.3333C19.6261 14.3333 18.9478 14.0524 18.4477 13.5523C17.9476 13.0522 17.6667 12.3739 17.6667 11.6667C17.6667 10.9594 17.9476 10.2811 18.4477 9.78105C18.9478 9.28095 19.6261 9 20.3333 9C21.0406 9 21.7189 9.28095 22.219 9.78105C22.719 10.2811 23 10.9594 23 11.6667C23 12.3739 22.719 13.0522 22.219 13.5523C21.7189 14.0524 21.0406 14.3333 20.3333 14.3333Z" fill="#DFE1E9"/>
</svg>
