<svg width="20" height="20" viewBox="0 0 20 20" fill="none" xmlns="http://www.w3.org/2000/svg">
<path fill-rule="evenodd" clip-rule="evenodd" d="M17.6724 6.58283V13.3753C17.6724 15.892 16.0974 17.667 13.5807 17.667H6.3724C3.85573 17.667 2.28906 15.892 2.28906 13.3753V6.58283C2.28906 4.06616 3.86406 2.29199 6.3724 2.29199H13.5807C16.0974 2.29199 17.6724 4.06616 17.6724 6.58283Z" stroke="white" stroke-width="1.5" stroke-linecap="round" stroke-linejoin="round"/>
<path d="M4.39844 13.6924L5.67177 12.3483C6.11427 11.8791 6.85177 11.8566 7.32177 12.2983C7.33594 12.3124 8.1026 13.0916 8.1026 13.0916C8.5651 13.5624 9.32094 13.5699 9.79177 13.1083C9.8226 13.0783 11.7368 10.7566 11.7368 10.7566C12.2301 10.1574 13.1159 10.0716 13.7159 10.5658C13.7559 10.5991 15.5643 12.4549 15.5643 12.4549" stroke="white" stroke-width="1.5" stroke-linecap="round" stroke-linejoin="round"/>
<path fill-rule="evenodd" clip-rule="evenodd" d="M8.5874 7.61108C8.5874 8.41858 7.93323 9.07275 7.12573 9.07275C6.31823 9.07275 5.66406 8.41858 5.66406 7.61108C5.66406 6.80358 6.31823 6.14941 7.12573 6.14941C7.93323 6.15025 8.5874 6.80358 8.5874 7.61108Z" stroke="white" stroke-width="1.5" stroke-linecap="round" stroke-linejoin="round"/>
</svg>
