<svg width="24" height="13" viewBox="0 0 24 13" fill="none" xmlns="http://www.w3.org/2000/svg">
<path d="M23.9999 12.8995C23.5199 12.8995 23.0366 12.7862 22.6194 12.5938C22.1781 12.3829 21.6955 12.2724 21.2063 12.2702C20.7149 12.2714 20.2299 12.3819 19.7865 12.5938C19.3641 12.7858 18.8966 12.8995 18.4065 12.8995C17.9318 12.8973 17.4631 12.793 17.0322 12.5938C16.5891 12.3821 16.1045 12.2716 15.6134 12.2702C15.1118 12.2702 14.6274 12.3902 14.1998 12.5938C13.7666 12.7932 13.2957 12.8975 12.8188 12.8995C12.3438 12.8989 11.8746 12.7945 11.4441 12.5938C11.0012 12.3822 10.5169 12.2717 10.0262 12.2702C9.51928 12.2702 9.0412 12.3902 8.61208 12.5938C8.17959 12.7937 7.70904 12.898 7.23256 12.8995C6.7585 12.8984 6.29037 12.7941 5.86072 12.5938C5.4268 12.3902 4.94776 12.2702 4.44136 12.2702C3.93496 12.2702 3.59272 12.3902 3.15832 12.5938C2.7412 12.7862 2.39992 12.8995 1.91992 12.8995V10.7981C2.39992 10.7981 2.7412 10.6848 3.15832 10.4923C3.59224 10.2941 4.00312 10.1741 4.50952 10.1741C5.01592 10.1741 5.4604 10.2941 5.8948 10.4923C6.3124 10.6843 6.75976 10.7981 7.24984 10.7981C7.73992 10.7981 8.19832 10.6848 8.6212 10.4923C9.06247 10.2852 9.54352 10.1766 10.031 10.1741C10.5359 10.1741 11.0178 10.2941 11.4465 10.4923C11.8636 10.6843 12.3302 10.7981 12.8198 10.7981C13.3094 10.7981 13.7764 10.6848 14.1998 10.4923C14.6421 10.2848 15.1243 10.1762 15.6129 10.1741C16.1188 10.1741 16.6026 10.2941 17.0318 10.4923C17.4484 10.6843 17.9222 10.7981 18.406 10.7981C18.8826 10.7967 19.3534 10.6924 19.786 10.4923C20.2309 10.2853 20.7152 10.1767 21.2058 10.1741C21.7065 10.1741 22.1908 10.2941 22.619 10.4923C23.0361 10.6843 23.5194 10.7981 23.9994 10.7981L23.9999 12.8995ZM18.3782 4.12224L22.4418 4.44528L22.1351 2.33184L19.1519 2.11728C18.3455 2.07744 18.4617 2.8992 18.4617 2.8992L18.3782 4.12224ZM10.8426 3.6408C11.589 3.6408 12.19 3.02928 12.19 2.2704C12.19 1.51104 11.5895 0.900002 10.8426 0.900002C10.0972 0.900002 9.49768 1.51152 9.49768 2.2704C9.49768 3.02928 10.0972 3.6408 10.8426 3.6408ZM2.52712 8.9232C2.69706 8.87222 2.8627 8.80786 3.02248 8.73072C3.45688 8.5272 3.93544 8.40768 4.44184 8.40768C4.94824 8.40768 5.42728 8.5272 5.8612 8.73072C6.2788 8.9232 6.74296 9.03648 7.23304 9.03648C7.70968 9.03505 8.1804 8.93075 8.61304 8.73072C9.05453 8.51927 9.53761 8.40891 10.0271 8.40768C10.5321 8.40768 11.0164 8.5272 11.445 8.73072C11.8756 8.93146 12.3447 9.03581 12.8198 9.03648C13.3094 9.03648 13.7769 8.92368 14.2002 8.73072C14.6418 8.51995 15.1246 8.40962 15.6138 8.40768C16.1198 8.40768 16.6036 8.5272 17.0327 8.73072C17.4636 8.92995 17.9323 9.03422 18.407 9.03648C18.8836 9.03505 19.3543 8.93075 19.787 8.73072C20.2304 8.51905 20.7154 8.4087 21.2068 8.40768C21.7074 8.40768 22.1918 8.5272 22.6199 8.73072C23.0506 8.93153 23.5199 9.03588 23.9951 9.03648L23.5382 5.28912L6.64792 3.85008L9.1972 1.23312L8.07832 1.13136L5.5324 3.75408L0.000398084 3.28944C-0.0332019 5.20944 2.07016 8.40192 2.52712 8.9232Z" fill="#6F7BE8"/>
</svg>
