<svg fill="none" height="24" viewBox="0 0 24 24" width="24" xmlns="http://www.w3.org/2000/svg"><g fill="#292d32"><path d="m17 21.25h-10c-.41 0-.75-.34-.75-.75s.34-.75.75-.75h10c2.86 0 4.25-1.39 4.25-4.25v-7c0-2.86-1.39-4.25-4.25-4.25h-10c-2.86 0-4.25 1.39-4.25 4.25 0 .41-.34.75-.75.75s-.75-.34-.75-.75c0-3.65 2.1-5.75 5.75-5.75h10c3.65 0 5.75 2.1 5.75 5.75v7c0 3.65-2.1 5.75-5.75 5.75z"/><path d="m11.9988 12.87c-.84 0-1.69-.26-2.34-.79l-3.13-2.50003c-.32-.26-.37999-.73-.12-1.05.26001-.32.72999-.38 1.04999-.12l3.13001 2.50003c.76.61 2.05.61 2.81 0l3.13-2.50003c.32-.26.8-.21 1.05.12.26.32.21.8-.12 1.05l-3.13 2.50003c-.64.53-1.49.79-2.33.79z"/><path d="m8 17.25h-6c-.41 0-.75-.34-.75-.75s.34-.75.75-.75h6c.41 0 .75.34.75.75s-.34.75-.75.75z"/><path d="m5 13.25h-3c-.41 0-.75-.34-.75-.75s.34-.75.75-.75h3c.41 0 .75.34.75.75s-.34.75-.75.75z"/></g></svg>