<svg width="20" height="20" viewBox="0 0 20 20" fill="none" xmlns="http://www.w3.org/2000/svg">
<path d="M16.062 5.75166L17.9885 6.62554L18.2308 6.80753L18.9065 7.79572L18.5592 9.41663L18.5442 9.57908L18.5841 9.62169L18.6606 9.67233L18.7281 9.8438L18.7865 10.2554L18.7815 10.4254L18.7301 10.6179L18.5881 10.8355L18.5637 10.9608L18.5881 11.0897L18.5901 11.2486L18.6401 11.3534L18.6576 11.4286L18.6546 11.5003L18.6051 11.5545L18.5287 11.6146L18.1349 11.8447L17.9425 11.9104L17.8445 11.9631L17.9075 12.0608L18.0464 12.1666L18.1069 12.2644L18.0544 12.4389L17.859 12.6951L17.8705 13.3609L17.848 13.5805L17.6531 14.3481L17.6536 14.5371L17.6946 14.6975L17.7006 14.7687L17.6956 14.891L17.7306 15.0209L17.8595 15.1698L17.9485 15.3518L17.9005 15.4962L17.853 15.5779L17.8805 15.6215L17.9345 15.6712L17.9365 15.7358L17.882 15.801L17.84 15.8882L17.8715 15.9986L17.93 16.0682L17.9445 16.1409L17.9175 16.2136L17.8855 16.2527L17.8885 16.3144L17.8655 16.345L17.845 16.3941L17.846 16.5109L17.836 16.5811L17.8026 16.6639L17.7336 16.5591L17.7091 16.5385L17.6626 16.539L17.5972 16.513L17.5477 16.5255L17.4977 16.5781L17.4253 16.5872L17.3413 16.5841L17.2713 16.5681L17.2429 16.5175L17.2379 16.4588L17.2209 16.4167L17.2169 16.3801L17.2329 16.345L17.2354 16.3244L17.2034 16.3044L17.0979 16.2878L17.033 16.2583L16.9735 16.2447L16.915 16.2723L16.8236 16.2808L16.6847 16.2558L16.4603 16.2718L16.4573 16.2332L16.4918 16.1906L16.5118 16.0848V16.0301L16.5023 15.9755L16.5412 15.605L16.5647 15.5463L16.5957 15.5082L16.6052 15.4766L16.6027 15.4285L16.5617 15.3067L16.5637 15.2686L16.6002 15.2706L16.7061 15.3352L16.7206 15.2991L16.6722 15.1939L16.5727 15.078L16.4463 14.9713L16.3298 14.9011L16.2184 14.8981L16.1489 14.9457L16.1085 15.0023L16.0285 15.0775L15.9775 15.0615L15.8631 14.9768L15.3399 14.698L15.3059 14.5872L15.2524 13.8723L15.2015 13.7224L15.1555 13.6281L15.11 13.605L15.0715 13.5494L15.101 13.4902L15.148 13.4506L15.1365 13.3544L15.06 13.2375L14.9831 13.1528L14.9436 13.0766L14.8761 12.9884L14.7882 12.9402L14.7362 12.9337L14.7022 12.9051L14.6777 12.8645L14.6163 12.5652L14.6313 12.3682L14.6178 12.3371L14.4414 12.2503L14.3494 12.2468L14.2714 12.3085L14.22 12.3722L14.0366 12.5472L13.8377 12.6459L13.7292 12.6655L13.5278 12.6344L13.3539 12.5286L13.2085 12.3942L13.0576 12.1982L13.0221 12.0097L13.0641 11.8663L13.0316 11.1293L12.9841 11.0586L12.9332 11.0651L12.7343 11.1589L12.3959 11.4166L12.309 11.4391L12.233 11.4015L12.1591 11.3494L12.0851 11.2521L11.9337 11.1328L11.6279 11.0456L11.4844 11.035L11.1421 10.1817L11.0437 10.1396L10.6559 10.1035L10.5804 10.0554L10.5399 10.0138L10.503 9.94858L10.484 9.87338L10.3465 9.5871L10.3001 9.43217L10.3006 9.39357L10.375 9.36048L10.392 9.34594L10.5629 9.32488L10.6164 9.28678L10.6144 9.23113L10.5909 9.15292L10.5729 9.04161L10.5944 8.40488L10.5399 8.36728L10.4855 8.30009L10.445 8.10356L10.345 7.83934L10.2506 7.65985L10.2461 7.56208L10.2836 7.41819L10.362 7.26879L10.511 7.10183L11.4619 6.93237L11.6783 6.94089L11.8173 6.96897L12.1361 6.92535L12.4229 6.79851L12.4484 6.66063L12.4704 6.03493L12.5454 5.87299L13.4439 5.39669L13.5638 5.26884L13.9156 5.0688L13.9936 4.98407L14.0301 4.92842L14.246 4.96652L16.062 5.75166Z" fill="black"/>
<path d="M10.9355 16.1431L10.9203 16.1568L10.9045 16.1586L10.8938 16.1652L10.8757 16.1473L10.8667 16.1545L10.8678 16.1407L10.8611 16.1269L10.8543 16.1048L10.8819 16.0887L10.9152 16.0797L10.9242 16.0952L10.9265 16.1174L10.9355 16.1431ZM9.97846 16.0635L9.95928 16.0791L9.93334 16.0725L9.90289 16.0576L9.89499 16.0324L9.91981 16.0181L9.96549 16.0037L9.97507 16.0235L9.97846 16.0635ZM9.92714 15.2698L9.91642 15.2722L9.89443 15.2644L9.87187 15.2519L9.86172 15.2387L9.8589 15.2094L9.85439 15.1867L9.85382 15.1657L9.86172 15.1394L9.87356 15.1221L9.88935 15.1131L9.90796 15.1173L9.92714 15.1394L9.94011 15.146L9.95082 15.155L9.95985 15.1669L9.96718 15.1825L9.92714 15.2698ZM9.01352 14.7225L8.99209 14.7351L8.8511 14.7267L8.83644 14.7255L8.77497 14.6938L8.73605 14.6268L8.75523 14.5951L8.78343 14.573L8.81726 14.5616L8.85449 14.5634L8.88663 14.5754L8.95769 14.5831L8.98476 14.5945L8.98814 14.6047L8.98984 14.6095L8.98927 14.6298V14.6328L8.99153 14.6483L9.00506 14.6561L9.01296 14.6639L9.01803 14.6687L9.01973 14.6818L9.02198 14.6956L9.01747 14.7093L9.01352 14.7225ZM12.5304 14.4288L12.4915 14.4527L12.461 14.4348L12.4655 14.3828L12.4898 14.3319L12.5208 14.3062L12.5394 14.3026L12.5541 14.3265L12.558 14.3798L12.5304 14.4288ZM8.27079 14.3265L8.24597 14.3529L8.2127 14.3481L8.17886 14.3301L8.16025 14.302L8.17548 14.2775L8.21326 14.2757L8.233 14.2811L8.25556 14.2924L8.27079 14.3265ZM7.74123 14.0221L7.71359 14.0299L7.64028 14.0233L7.61772 14.0287L7.58275 14.0502H7.5461L7.43725 14.0299L7.40398 14.0149L7.39947 14.0119L7.37409 13.9946L7.31431 13.9413L7.29739 13.9204L7.30472 13.9102L7.31826 13.9072L7.33348 13.9013L7.35209 13.9001L7.51282 13.9527L7.65607 13.9641L7.70062 13.9826L7.72544 14.0065L7.74123 14.0221ZM13.4654 13.9413L13.3927 13.9665L13.3566 13.9509L13.3656 13.8905L13.3927 13.8486L13.4412 13.8253L13.5134 13.8175L13.5229 13.8875L13.4654 13.9413ZM13.0684 13.7864L13.0255 13.8881L13.0035 13.9276L12.9246 14.0131L12.9122 14.0436L12.8958 14.0622L12.8231 14.101L12.8067 14.122L12.7904 14.1333L12.6962 14.2296L12.6404 14.2643L12.5964 14.2446L12.5546 14.1997L12.5056 14.1585L12.3781 14.2284L12.3426 14.2607L12.3071 14.2823L12.2664 14.2817L12.1796 14.2679L12.1407 14.2775L12.1001 14.2978L11.9969 14.3762L11.8903 14.424L11.8254 14.4749L11.7922 14.494L11.6743 14.5084L11.5903 14.5329L11.5547 14.5562L11.5372 14.5634L11.5316 14.5628L11.5209 14.5604L11.4995 14.5526H11.4803L11.4718 14.5718L11.4634 14.5873L11.4425 14.5993L11.4188 14.6071L11.4013 14.6101L11.3934 14.6041L11.3861 14.5993L11.3765 14.573L11.3675 14.5173L11.3805 14.4773L11.3838 14.4515L11.3737 14.4396L11.3545 14.3696L11.3754 14.3457L11.4651 14.3798L11.4859 14.3696L11.4978 14.3732L11.5034 14.375L11.6044 14.3146L11.8598 14.2266L11.8971 14.2219L11.9207 14.2117L11.9281 14.2087L12.0166 14.1513L12.0544 14.1184L12.1796 14.0669L12.1988 14.0652L12.2388 14.0687L12.258 14.0669L12.2715 14.0604L12.2913 14.043L12.3099 14.0358L12.3042 14.0209L12.2958 14.0053L12.3251 13.9694L12.3319 13.927L12.3228 13.8253L12.3082 13.7864L12.2755 13.7535L12.2439 13.7272L12.2304 13.7093L12.2789 13.6794L12.5462 13.7864L12.6184 13.7685L12.8197 13.6303L13.0718 13.5693L13.1468 13.5681L13.1846 13.5777L13.2336 13.6004L13.2641 13.6249L13.2748 13.6339L13.29 13.6764L13.2596 13.6955L13.2286 13.714L13.1107 13.7463L13.0684 13.7864ZM13.6617 13.4694L13.6318 13.4748L13.5714 13.4503L13.5754 13.3928L13.6109 13.3408L13.6448 13.3336L13.6651 13.348L13.6871 13.357L13.7051 13.3725L13.7062 13.3767L13.7124 13.4054L13.7051 13.4347L13.6871 13.4556L13.6735 13.4628L13.6617 13.4694ZM11.9241 9.53724L12.0098 9.5821L12.108 9.55518L12.4898 9.24774L12.7142 9.13589L12.7718 9.12811L12.8253 9.21245L12.862 10.0917L12.8146 10.2628L12.8547 10.4877L13.025 10.7216L13.1891 10.8819L13.3853 11.0081L13.6126 11.0451L13.735 11.0218L13.9595 10.904L14.1664 10.6952L14.2245 10.6193L14.3125 10.5457L14.4163 10.5499L14.6153 10.6534L14.6306 10.6905L14.6136 10.9255L14.683 11.2826L14.7106 11.3311L14.749 11.3652L14.8077 11.3729L14.9069 11.4303L14.983 11.5356L15.0276 11.6265L15.1144 11.7276L15.2007 11.867L15.2137 11.9818L15.1607 12.0291L15.1274 12.0997L15.1708 12.1661L15.2222 12.1936L15.274 12.306L15.3316 12.4849L15.3919 13.3378L15.4303 13.47L16.0207 13.8026L16.1499 13.9037L16.2074 13.9228L16.2976 13.8331L16.3433 13.7655L16.4217 13.7087L16.5475 13.7123L16.6789 13.796L16.8216 13.9234L16.9338 14.0616L16.9885 14.1872L16.9721 14.2302L16.8526 14.1531L16.8114 14.1507L16.8091 14.1961L16.8554 14.3415L16.8582 14.3989L16.8475 14.4366L16.8125 14.4821L16.786 14.552L16.742 14.9941L16.7527 15.0593V15.1245L16.7302 15.2507L16.6913 15.3015L16.6947 15.3476L16.9479 15.3284L17.1047 15.3583L17.2079 15.3482L17.2738 15.3153L17.341 15.3314L17.4143 15.3667L17.5333 15.3864L17.5694 15.4104L17.5665 15.4349L17.5485 15.4768L17.553 15.5204L17.5722 15.5707L17.5778 15.6407L17.61 15.7011L17.6889 15.7202L17.7837 15.7238L17.8654 15.713L17.9218 15.6502L17.9777 15.6353L18.0515 15.6664L18.104 15.6658L18.1316 15.6903L18.2095 15.8153L18.1863 15.8285L18.1519 15.8841L18.1429 15.9565L18.1502 15.9971L18.1762 16.0091L18.2444 16.0546L18.6065 16.3943L18.668 16.502L18.6781 16.5833L18.7204 16.6288L18.7779 16.6521L18.8089 16.6928L18.8219 16.7388L18.8479 16.7747L18.8794 16.8082L18.9471 16.9308L18.9629 16.953L18.9984 16.9715L18.9934 17.0074L18.9922 17.0415L18.942 17.0648L18.9505 17.1181L18.8439 17.1354L18.7351 17.1904L18.6945 17.2L18.6787 17.1964L18.6646 17.1821L18.6505 17.1725L18.6341 17.1767L18.6161 17.185L18.5986 17.1904L18.5546 17.188L18.5168 17.1797L18.4847 17.1653L18.4599 17.1432L18.3719 16.993L18.3245 16.9326L18.2501 16.8961L18.1835 16.8979L18.166 16.889L18.1542 16.8674L18.1474 16.8453L18.1367 16.8268L18.1153 16.8196H17.9512L17.6043 16.7526L17.4853 16.7723L17.3833 16.7652L17.3472 16.7472L17.3613 16.7113L17.3049 16.7149L17.244 16.7281L17.218 16.7424L17.174 16.7813L17.1453 16.7891L17.1317 16.7831L17.1255 16.7741L17.1159 16.7747L17.0939 16.7969L17.0787 16.8082L17.059 16.8148L17.0421 16.8124L17.0353 16.7969L17.024 16.8022L16.9569 16.8519L16.8864 16.8638L16.8244 16.8507L16.764 16.8303L16.7003 16.8196L16.649 16.7945L16.6072 16.734L16.5503 16.6048L16.4905 16.5289L16.4183 16.5103L16.3394 16.5319L16.2621 16.5743L16.1972 16.6306L16.155 16.6587L16.1251 16.6581L16.133 16.5588L16.1403 16.5331L16.1454 16.5223L16.1465 16.5139L16.1437 16.4966L16.1239 16.4451L16.094 16.417L16.0546 16.4063L16.0066 16.4045L15.9638 16.4093L15.8577 16.435L15.8346 16.4302L15.7946 16.4093L15.7726 16.4045L15.7506 16.4063L15.7128 16.417L15.6931 16.4194L15.6457 16.4152L15.5154 16.3722L15.5295 16.3584L15.274 16.3405L15.2458 16.3243L15.2323 16.289L15.2216 16.179L15.1754 16.0647L15.1517 15.9738L15.1353 15.9307L15.1167 15.9122L15.1133 15.9038L15.071 15.8494L15.0626 15.8476L15.0383 15.8518L15.0304 15.8494L15.027 15.8398L15.022 15.8135L14.996 15.7328L14.9881 15.6951L14.9695 15.6508L14.9656 15.6239L14.9774 15.5772L15.0372 15.5085L15.0575 15.463L15.0315 15.3912L14.9052 15.2429L14.9154 15.1825L14.9013 15.1687L14.8906 15.0664L14.877 15.0156L14.8556 14.9749L14.8189 14.9372L14.8099 14.9205L14.8043 14.9002L14.7975 14.8487L14.7969 14.8278L14.8296 14.5455L14.8229 14.4396L14.6988 13.9132L14.6729 13.8726L14.608 13.8127L14.5849 13.7769L14.5871 13.7398L14.5285 13.6985L14.5088 13.6764L14.5369 13.6788L14.5578 13.6698L14.577 13.6566L14.6001 13.6453L14.5838 13.6303L14.5815 13.6088L14.5883 13.5866L14.6001 13.5681L14.5415 13.595L14.5217 13.5992L14.5042 13.5944L14.493 13.5836L14.4851 13.5729L14.476 13.5681L14.4659 13.5603L14.4557 13.5454L14.4428 13.5358L14.4055 13.5555L14.3943 13.5478L14.3892 13.5292L14.3903 13.5059L14.3655 13.5119L14.3525 13.4999L14.3531 13.4832L14.3711 13.4748L14.3807 13.467L14.414 13.4281L14.4309 13.4138V13.397L14.3745 13.3887L14.3288 13.3558L14.2984 13.3085L14.286 13.2571L14.264 13.2804L14.2392 13.2894L14.1879 13.29L14.1591 13.2798L14.1416 13.2583L14.127 13.2361L14.1089 13.2266L13.911 13.2236L13.8675 13.2092L13.8546 13.2266L13.8083 13.199L13.7508 13.1865L13.6318 13.1793L13.5748 13.1679L13.475 13.1255L13.4158 13.1159L13.2974 13.1231L13.237 13.1398L13.193 13.1715L13.1524 13.1925L13.0278 13.1984L12.9776 13.2092L12.9618 13.2206L12.9302 13.2541L12.924 13.2648L12.9201 13.2894L12.9094 13.2965L12.8947 13.3001L12.8783 13.3115L12.8456 13.3414L12.717 13.4239L12.6708 13.4652L12.6702 13.4748L12.6601 13.482L12.6251 13.5143L12.6043 13.5214L12.5191 13.5322L12.4401 13.5525L12.4198 13.5549L12.3561 13.5525L12.3352 13.5573L12.3065 13.5789L12.2901 13.5836H12.2185L12.1587 13.5687L12.1396 13.5681L12.1029 13.5848L12.0392 13.6482L12.0149 13.6626L11.9935 13.68L11.8903 13.802L11.9179 13.7924L11.9298 13.7858L11.9439 13.7709L11.9512 13.8265L11.9399 13.8947L11.9174 13.9593L11.8903 14.0053L11.8277 14.064L11.7561 14.1028L11.676 14.1202L11.5903 14.1148L11.4363 14.058L11.3489 14.046L11.2761 14.0825L11.2536 14.1256L11.2434 14.1662L11.2248 14.1961L11.1786 14.2075L11.1408 14.2123L11.0573 14.2386L11.0286 14.253L10.9039 14.3714L10.8825 14.3858L10.6992 14.5443L10.4917 14.6729L10.4787 14.6854L10.4663 14.7004L10.4522 14.7129L10.4324 14.7183L10.4082 14.7135L10.376 14.6932L10.3535 14.6884L10.1894 14.7046L10.1053 14.6902L10.0732 14.6388L10.0495 14.573L9.99368 14.5173L9.90796 14.4994L9.73426 14.5066L9.66546 14.4707L9.63106 14.4127L9.60286 14.3403L9.56677 14.2709L9.50981 14.2219L9.4692 14.2135L9.43142 14.2201L9.39419 14.2314L9.24869 14.2416L9.20865 14.2374L9.07781 14.1967L9.04454 14.1908L9.02424 14.1842L8.98758 14.1531L8.97179 14.1447L8.95205 14.1435L8.91257 14.1525L8.78681 14.2147L8.69883 14.2278L8.62157 14.2512L8.57927 14.253L8.49411 14.2237L8.44731 14.2195L8.40275 14.2452L8.37907 14.2362L8.27981 14.1447L8.136 14.0544L7.95046 13.9054L7.92339 13.8696L7.91211 13.8253L7.9076 13.7176L7.89237 13.6722L7.85966 13.6303L7.79875 13.589L7.14907 13.3546L7.10734 13.3504L7.06673 13.3378L7.04079 13.3079L7.02105 13.2714L6.9968 13.2403L6.88288 13.2098L6.8654 13.1871L6.84904 13.138L6.81013 13.1123L6.72215 13.0848L6.56819 12.9377L6.50051 12.8886L6.39844 12.8408L6.42946 12.7768L6.44017 12.763L6.44863 12.7642L6.48754 12.7463L6.50841 12.7475L6.63305 12.7343L6.66406 12.7355L6.75881 12.7612L6.84791 12.7654L6.87386 12.7552L6.9562 12.705L7.00864 12.8121L7.14851 12.9532L7.5743 12.9933L7.64479 13.0232L7.80608 13.1638L7.83823 13.1805L7.8715 13.1853L8.0108 13.1476H8.05987L8.64413 13.2577L8.84321 13.1452L8.89509 13.0567L8.8731 12.9897L8.87366 12.9646L8.9137 12.8396L8.9419 12.6583L9.02649 12.5489L9.22388 12.4759L9.7337 12.4263L9.84988 12.4424L9.94011 12.4759L10.0349 12.4328L10.2091 12.3898L10.7184 12.4663L10.9569 12.3892L11.0675 12.2773L11.1301 12.0745L11.2045 11.9489L11.4651 11.8L11.6399 11.7521L11.7504 11.7587L11.8079 11.7318L11.8514 11.6989L11.8841 11.6427L11.8959 11.5129L11.8046 11.3544L11.6433 11.2144L11.6342 11.1403L11.6433 11.0445L11.7397 10.6695L11.7623 10.4111L11.7115 10.2664L11.1374 9.67481L11.1272 9.56595L11.1898 9.5175L11.1893 9.4523L11.0793 9.1L11.2412 9.11256L11.5863 9.21664L11.7572 9.35899L11.8407 9.47503L11.9241 9.53724Z" fill="black"/>
<path d="M6.10733 3.29829L6.26547 3.29766L6.99094 3.08742H6.9947L7.53504 3.29577L7.85698 3.59198L8.12997 3.92459L8.62574 5.17972L8.97906 5.81231L9.31795 6.22901L9.41082 6.39343L9.48613 6.93188L9.54701 7.07873L9.8771 7.32724L10.3089 7.54689L10.3082 7.59521L10.3666 7.78913L10.5392 8.14747L10.563 8.24161L10.6095 8.32319L10.6603 8.37528L10.7551 8.43552L11.2421 8.48071L11.3657 8.53342L11.7956 9.60154L11.9179 9.97117L11.9186 10.0396L11.8489 10.0904L11.8602 10.2046L12.4991 10.8253L12.5555 10.9772L12.5304 11.2483L12.4231 11.6417L12.4131 11.7422L12.4231 11.82L12.6026 11.9668L12.7043 12.1331L12.6911 12.2693L12.6547 12.3283L12.6064 12.3628L12.5424 12.3911L12.4194 12.3842L12.2248 12.4344L11.9349 12.5906L11.852 12.7224L11.7824 12.9352L11.6594 13.0525L11.3939 13.1335L10.8272 13.0531L10.6333 13.0983L10.5279 13.1435L10.4275 13.1084L10.2982 13.0914L9.73088 13.1435L9.51123 13.2201L9.4171 13.3349L9.38572 13.5251L9.34116 13.6562L9.34054 13.6826L9.36501 13.7529L9.30728 13.8458L9.08575 13.9637L8.43559 13.8483H8.38099L8.22598 13.8878L8.18896 13.8828L8.15319 13.8652L7.9737 13.7177L7.89526 13.6863L7.42145 13.6443L7.26581 13.4962L7.20745 13.3839L6.78259 13.077L6.51022 12.8203L6.2297 12.4739L5.94165 11.8281L5.78162 11.6405L5.71071 11.5984L5.61657 11.5608L5.56323 11.4729L5.25196 10.5918L5.20301 10.3734L4.24911 8.57484L4.06084 8.40163L3.8914 8.33825L3.75459 8.19454L3.6046 7.95669L3.49039 7.69437L3.34793 7.5356L3.05611 7.44083L2.58669 7.40569L2.46558 7.35925L2.33567 7.09505L2.22898 6.98836L2.17188 6.81076V6.68462V6.67834L2.38525 6.62563L2.7417 6.64759L2.83207 6.63316L3.39939 6.30118L3.44457 6.20642L3.44709 6.07902L3.395 5.99179L3.37931 5.93782L3.4088 5.8851L3.40441 5.82925L3.33726 5.64098L3.30212 5.43326L3.33412 5.39623L3.50733 5.43953L3.75083 5.55814L3.8048 5.57007L3.85249 5.63031L3.93156 5.67863L4.15686 5.737L4.27484 5.70499L4.37965 5.64286L4.43361 5.58889L4.44554 5.56442L4.44428 5.44644L4.38153 5.13767L4.54281 5.1132L4.60243 5.09374L4.6018 5.01404L4.57984 4.86719L4.59678 4.65131L4.77627 4.20198L4.81957 3.94844L4.87103 3.779L4.80953 3.61081L4.68715 3.5173L4.59364 3.49973L4.51018 3.46773L4.44491 3.4012L4.39471 3.28385L4.40286 3.2098L4.60933 3.25937L4.76873 3.23678L5.0549 3.04224L5.11515 3.01525L5.15657 2.9594L5.44588 2.8L5.4829 2.80565L5.51554 2.87342L5.53562 3.10437L5.63414 3.19348L6.10733 3.29829Z" fill="black"/>
<path d="M1.58677 8.97397L1.56544 8.9771L1.5441 8.95765L1.52339 8.90431L1.51021 8.85661L1.49452 8.82774L1.51962 8.81205L1.54284 8.8221L1.58112 8.83904L1.60372 8.85285L1.5943 8.89489L1.60058 8.93694L1.58677 8.97397ZM3.75375 8.19453L3.89056 8.33824L4.06 8.40163L4.24827 8.57484L5.20217 10.3734L5.25112 10.5918L5.56239 11.4729L5.61573 11.5608L5.70987 11.5984L5.78078 11.6405L5.94081 11.8281L6.22886 12.4739L6.50938 12.8203L6.78175 13.077L7.20661 13.3839L7.11498 13.4366L7.08611 13.4472L6.98696 13.4428L6.88153 13.4159L6.84701 13.4146L6.70832 13.4284L6.6851 13.4272L6.6418 13.446L6.63239 13.4447L6.62046 13.4592L6.58595 13.5263L6.4209 13.4529L6.3776 13.4071L6.37383 13.3581L6.39391 13.3274L6.42968 13.3117L6.47361 13.3073L6.51378 13.3085L6.55959 13.3035L6.58595 13.2803L6.56712 13.2238L6.53323 13.195L6.44725 13.1617L6.41525 13.1347L6.3983 13.1065L6.36379 13.028L6.34935 13.0036L6.18995 12.8385L6.12029 12.7833L6.04248 12.7494L5.66343 12.6659L5.58373 12.6258L5.3327 12.3923L5.25488 12.3396L5.16702 12.3026L5.06599 12.2888L4.91851 12.307L4.88462 12.2963L4.84508 12.2712L4.76915 12.2768L4.68694 12.2963L4.55389 12.3208L4.47043 12.3076L4.28655 12.2693L4.26145 12.263L4.25078 12.2473L4.24827 12.2241L4.24137 12.2065L4.23007 12.1946L4.16355 12.1852L4.07318 12.1576L4.02737 12.1086L3.97905 12.0264L3.92759 11.9938L3.91127 12.061L3.86797 12.0647L3.82592 11.921L3.7845 11.8608L3.75187 11.7735L3.67154 11.6424L3.63514 11.6079L3.59121 11.562L3.58054 11.5137L3.62761 11.3838L3.62447 11.3198L3.58054 11.2483L3.50649 11.1811L3.48076 11.1497L3.40545 11.033L3.33579 10.9583L3.31948 10.9338L3.18957 10.6119L3.172 10.536L3.17012 10.2278L3.14313 10.123L3.09544 10.0339L3.04147 9.96991L2.97243 9.92723L2.88332 9.9059L2.79672 9.9015L2.75467 9.88958L2.73647 9.86385L2.72078 9.81616L2.62037 9.68939L2.60343 9.64358L2.59025 9.57643L2.59841 9.51618L2.64233 9.49045L2.68375 9.50489L2.7258 9.54003L2.76094 9.58396L2.78165 9.62412L2.80362 9.60467L2.80111 9.5871L2.7917 9.56701L2.79483 9.54003L2.8099 9.52246L2.85257 9.48417L2.867 9.45844L2.87453 9.40573L2.86889 9.34925L2.84818 9.31411L2.80927 9.32415L2.79107 9.25386L2.77663 9.22876L2.7509 9.20679L2.73835 9.2093L2.7189 9.21997L2.7007 9.22562L2.69317 9.21495L2.69066 9.17353L2.68626 9.15345L2.67873 9.14027L2.6279 9.13148L2.4616 9.14153L2.42332 9.14843L2.36683 9.18169L2.30784 9.17479L2.26078 9.13337L2.24195 9.06559L2.23818 9.0066L2.24383 8.97648L2.26329 8.94761L2.27835 8.91435L2.29215 8.87418L2.31161 8.85598L2.34361 8.8905L2.35303 8.79135L2.35805 8.7744L2.33734 8.7675L2.32416 8.75306L2.29843 8.706L2.31349 8.64638L2.31286 8.55162L2.3022 8.45434L2.28525 8.38845L2.25764 8.33762L2.21622 8.28114L2.18359 8.26545L2.18233 8.33824L2.17041 8.31126L2.11016 8.22026L1.99783 8.12738L1.97963 8.096L1.96519 8.05396L1.93131 8.00689L1.86227 7.9366L1.73613 7.88577L1.71731 7.86067L1.7035 7.81172L1.67275 7.76528L1.61564 7.70127L1.55853 7.61843L1.46189 7.44146L1.41105 7.36678L1.37089 7.33163L1.28366 7.27766L1.20082 7.19231L1.19329 7.18102L1.18701 7.15152L1.18513 7.10634L1.1776 7.08061L1.21086 7.07684L1.21839 7.06241L1.20584 7.04421L1.1776 7.0304L1.20019 6.94693L1.15187 6.80824L1.16442 6.7436L1.1343 6.72039L1.10104 6.6752L1.0728 6.62562L1.0615 6.58483L1.04895 6.5591L1.01757 6.53776L1.00063 6.53086H1L1.13681 6.46246L1.35583 6.42606L1.4782 6.48568L1.80642 6.50262L2.05493 6.59236L2.13401 6.64947L2.17103 6.68461V6.81075L2.22814 6.98835L2.33483 7.09504L2.46473 7.35924L2.58585 7.40568L3.05527 7.44083L3.34709 7.53559L3.48955 7.69436L3.60376 7.95668L3.75375 8.19453Z" fill="black"/>
</svg>
