<svg width="20" height="20" viewBox="0 0 20 20" fill="none" xmlns="http://www.w3.org/2000/svg">
<path d="M5.94791 1.63736L6.01997 1.63176L6.03307 1.71293L6.0078 1.82581L6.01154 1.97789L6.11635 2.09264L6.3063 2.07212L6.59264 2.1057L6.80693 2.07492L6.92857 2.01054L6.94355 1.88366L7.00531 1.80062L7.10917 1.78383L7.17655 1.70639V1.59537L7.21772 1.51047L7.3506 1.46569L7.54149 1.26697L7.73893 1.24738L7.86338 1.25577L7.92702 1.21939L7.94667 0.968419L7.97942 0.893782L8.43325 0.863926L8.5418 0.764099L8.55209 0.633483L8.49501 0.518729L8.5287 0.445025L8.62134 0.452489L8.74579 0.55978L9.10886 0.723981L9.59545 1.27257L9.73207 1.29309L9.83032 1.28936L9.83219 1.34814L9.81535 1.45543L9.71055 1.57578L9.58516 1.85754L9.43637 2.07678L9.11916 2.11317L9.0181 2.15329L8.97224 2.213L9.00312 2.366L9.16407 2.49662L9.39707 2.6235L9.50094 2.64403L9.58703 2.68974L9.63382 2.84835L9.71429 2.97056L9.98472 2.68881L10.1307 2.62443L10.2037 2.60857L10.2645 2.70094L10.2963 2.85674L10.2617 3.11051L10.2692 3.28871L10.1728 3.36801L9.81722 3.29244L9.50281 3.31483L9.38678 3.49209L9.33157 3.59938L9.11354 3.57046L9.02184 3.59472L8.96101 3.63483L8.95072 3.72067L8.97973 3.92685L8.96195 4.14144L8.80849 4.22074L8.58204 4.23193L8.39863 4.32243L8.37992 4.37654L8.3874 4.41386L8.40705 4.43905L8.42858 4.46238L8.44448 4.49316L8.4501 4.53701L8.44074 4.60792L8.44448 4.64897L8.45665 4.67789L8.4108 4.7516L8.35559 4.79078L8.30319 4.77492L8.19557 4.76559L7.68746 4.88314V4.99976L7.77449 5.12945L7.82128 5.22554L7.7773 5.47185L7.71086 5.60153L7.21398 5.57914L6.67499 5.71628L6.30443 5.68643L5.50905 5.42986L5.27605 5.22834L5.06363 5.09773L4.80724 5.03895L4.55178 5.02029L4.07736 4.82623L3.58609 4.88781L3.39894 4.88221L3.34092 4.95032L3.3849 5.09586L3.35028 5.34123L3.22957 5.72001L3.1622 6.27047L3.09108 6.33017L3.07985 6.30125L2.93013 6.19396L2.88241 6.14638L2.83843 6.08387L2.80755 6.0223L2.78509 5.95512L2.77199 5.87862L2.7486 5.81518L2.70742 5.76946L2.65876 5.72841L2.61572 5.68176L2.33406 5.16863L2.32751 5.16303L2.32096 5.16023L2.31347 5.1593L2.2199 5.1733L2.13755 5.16863L2.0655 5.12758L2 5.03615L2.06737 5.00536L2.09825 4.9839L2.12445 4.95685H2.12539L2.17311 4.85049L2.20025 4.75346L2.23581 4.66856L2.31347 4.60139L2.35933 4.55101L2.48752 4.44652L2.52027 4.40267V4.36068L2.50156 4.32803L2.47817 4.29444L2.46319 4.25059L2.46974 4.21607L2.51466 4.1433L2.52963 4.10878L2.57268 3.92499L2.57829 3.83076L2.56145 3.74399L2.51279 3.66936L2.44729 3.62737H2.37617L2.31347 3.67868L2.25452 3.63483L2.21429 3.5518L2.11603 3.23739L2.14691 3.18701L2.31347 3.14969L2.33593 3.12823L2.35652 3.10398L2.37523 3.07692L2.39021 3.04613L2.39395 2.93231L2.36775 2.77744L2.38085 2.67201L2.50437 2.7084L2.61291 2.76624L2.71117 2.78957L2.9292 2.80636L2.99844 2.83155L3.01716 2.82689L3.03026 2.80263L3.03868 2.76158L3.03961 2.72053L3.03026 2.69534L2.9947 2.64589L2.98534 2.58058L2.98347 2.50875L2.97318 2.43597L2.96008 2.40892L2.94417 2.39026L2.92826 2.36693L2.9189 2.32588L2.90767 2.2951L2.88428 2.26711L2.85621 2.24472L2.83001 2.22979L2.78228 2.17661L2.80661 2.1141L2.89457 2.01334L2.90487 1.96856L2.89738 1.89112L2.90767 1.84541L2.93855 1.80156L2.97879 1.78476L3.06862 1.77543L3.15658 1.71386L3.17249 1.62056L3.16594 1.5226L3.18746 1.44796L3.26045 1.44516L3.31753 1.47502L3.35496 1.49461L3.44011 1.52447L3.48877 1.46009L3.5131 1.36586L3.5393 1.29589L3.54772 1.22312L3.51872 1.12329L3.50936 1.07011L3.51029 1.0188L3.52527 0.974949L3.55895 0.941362L3.58048 0.934832L3.62445 0.930167L3.64317 0.919905L3.64972 0.902178L3.6413 0.854597L3.64411 0.836871L3.68809 0.764099L3.71054 0.755703L3.75733 0.771563L3.82377 0.814479L3.85652 0.828474L3.89769 0.824742L3.9922 0.866725L4.04273 0.853663L4.08952 0.809814L4.17467 0.758502L4.20649 0.754769L4.26263 0.769697L4.34311 0.743574L4.38241 0.735178L4.41703 0.717451L4.4423 0.670803L4.3768 0.594299L4.4189 0.485142L4.48815 0.367589L4.49938 0.265896L4.45165 0.225778L4.32907 0.22671L4.28509 0.195923L4.27667 0.13528L4.30474 0.0858327L4.34404 0.0391844L4.35995 0L4.44791 0.0298542L5.05053 0.503801L5.81223 1.54313L5.94791 1.63736Z" fill="black"/>
<path d="M8.35826 4.79078L8.40224 4.85049L8.47429 5.01843L8.50236 5.20502L8.48645 5.32537L8.44341 5.41121L8.36855 5.49051L8.19169 5.609L8.129 5.69763L7.0192 6.01017L6.8227 6.19676L6.75345 6.36843L6.69824 6.37496L6.64303 6.39828L6.63461 6.45613L6.58595 6.6026L6.5897 6.63153L6.63929 6.66045L6.71041 6.7864L6.8096 6.83864L6.89288 6.94407L6.95932 6.96833L7.13243 7.07375L7.16518 7.08775L7.17735 7.11947L7.17267 7.15772L7.13617 7.22396L7.14459 7.25568L7.1867 7.30606L7.22788 7.34245L7.28496 7.3695L7.40473 7.40682L7.41035 7.41708L7.41502 7.43574L7.42532 7.45347L7.44778 7.46093L7.46462 7.4572L7.48053 7.43948L7.50205 7.43574L7.52638 7.44134L7.54416 7.45533L7.55913 7.47306L7.71634 7.59248L7.77248 7.6186V7.66805L7.8305 7.72683L7.91097 7.77627L8.04572 7.80893L8.43499 8.00485L8.46868 8.04404L8.48645 8.09068L8.52763 8.10375L8.57441 8.10655L8.60997 8.12241L8.68483 8.21104L8.74753 8.33046L8.7887 8.37617L8.84859 8.3939L8.89538 8.41722L8.99831 8.53198L9.37167 9.02178L9.88165 10.0947L9.94435 10.1852L9.98271 10.2216L9.69169 10.8998L9.45963 11.2199L9.46524 11.4102L9.50268 11.649L9.38945 11.8337L9.0582 12.0511L8.97398 12.0847L8.96649 12.0744L8.90567 12.0493L8.85795 12.0427L8.82987 12.011L8.80367 11.9728L8.76344 11.9476L8.71384 11.9326L8.69232 11.9158L8.68858 11.8869L8.69513 11.8347L8.70823 11.7936L8.72694 11.761L8.74378 11.7246L8.74846 11.6733L8.73162 11.6248L8.66986 11.5772L8.65302 11.5296L8.62214 11.5147L8.60249 11.4932L8.54634 11.4158L8.53418 11.3953L8.51921 11.3747L8.4247 11.2842L8.41066 11.2628L8.38914 11.2124L8.39007 11.1937L8.40224 11.1797L8.43031 11.1107L8.44809 11.0892L8.45932 11.065L8.45464 11.0221L8.43686 10.9941L8.35171 10.9297L8.29931 10.8616L8.26375 10.8038L8.22257 10.7571L8.1552 10.7216L7.97554 10.6601L7.93156 10.6573L7.78558 10.7375L7.73037 10.758L7.61808 10.7702L7.51796 10.7487L7.42158 10.6974L7.32052 10.6237V10.6228H7.31958L6.36605 9.79148L6.23411 9.64221L6.02731 9.51626L5.88134 9.3987L5.86917 9.39217L5.57348 9.22051L5.48458 9.13187L5.16923 8.98073L4.83237 8.87624L4.459 8.91823L4.27373 8.89583L4.20635 8.74563V8.74469L4.24472 8.69898L4.29806 8.65606L4.34484 8.60755L4.36543 8.54317L4.34765 8.49186L4.3018 8.45081L4.24191 8.42562L4.10342 8.40976L4.0585 8.37151L4.06225 8.32579L4.12588 8.29034L4.19512 8.28381L4.24846 8.28754L4.29993 8.27728L4.36636 8.2269L4.45245 8.142L4.4955 8.08882L4.51796 8.04124L4.51608 8.00672L4.47959 7.98339L4.46555 7.94794L4.46742 7.91715L4.48708 7.84532L4.48614 7.80613L4.45807 7.74269L4.41409 7.69697L4.31303 7.6158L4.1867 7.43761L4.08096 7.33498L4.06412 7.27994L4.06225 7.2165L4.05289 7.13999L4.02762 7.06815L3.99113 7.00285L3.88539 6.87037L3.8751 6.8629L3.86574 6.8573L3.85358 6.84984L3.84983 6.84798L3.83299 6.84518L3.81708 6.84798L3.80211 6.85637L3.74316 6.91235L3.64678 6.92448L3.5532 6.90302L3.49893 6.85637L3.54852 6.79106L3.69824 6.69963L3.73754 6.64179L3.71508 6.55876L3.64865 6.51211L3.5925 6.45519L3.60467 6.33857L3.53636 6.35537L3.38196 6.35817L3.32488 6.38242L3.23224 6.47106L3.17984 6.50651L3.12463 6.51957L3.10311 6.49345L3.10404 6.3591L3.09375 6.33018L3.16487 6.27047L3.23224 5.72002L3.35295 5.34123L3.38757 5.09586L3.34359 4.95032L3.40161 4.88222L3.58876 4.88781L4.08003 4.82624L4.55445 5.02029L4.80991 5.03895L5.0663 5.09773L5.27872 5.22834L5.51172 5.42987L6.3071 5.68643L6.67766 5.71629L7.21665 5.57914L7.71353 5.60153L7.77997 5.47185L7.82395 5.22555L7.77716 5.12945L7.69013 4.99977V4.88315L8.19824 4.76559L8.30586 4.77492L8.35826 4.79078Z" fill="black"/>
<path d="M9.33032 3.59939L9.40986 3.63484L9.54554 3.72254L9.61104 3.8177L10.9716 4.71055L11.6753 4.79545L11.7923 4.8393L11.8868 4.81504L12.0533 4.64338L12.1357 4.62098L12.3041 4.63125L12.5119 4.60792L13.3765 4.97644L13.3269 5.05761L13.3044 5.1817L13.3437 5.28432L13.355 5.37109L13.2277 5.66311L13.2015 5.74708L13.1847 5.83851L13.2258 5.91874L13.3877 6.01204L13.5973 6.08947L13.9548 6.12026L14.0418 6.15291L14.2954 5.99244L14.3553 5.929L14.4638 5.5978L14.6042 5.51663L14.7792 5.45785L14.9382 5.36642L15.1123 5.4224L15.2508 5.59034L15.3369 5.73774L15.3406 5.83851L15.2901 5.94766L15.2564 6.06055L15.2863 6.14918L15.3893 6.23688L15.6279 6.35723L15.7364 6.47199L15.8347 6.54942L15.9086 6.49904L15.9292 6.40108L15.9919 6.27793L16.1023 6.19863L16.1734 6.24155L16.224 6.33205L16.326 6.41041L16.3943 6.48132L16.3896 6.59234L16.412 6.70056L16.6142 6.80972L16.6422 6.84051L16.5711 6.99165L16.558 7.1969L16.5664 7.36017L16.2455 8.00392L16.2277 8.09255L16.2212 8.16252L16.1454 8.2073L15.6747 8.33979L15.4922 8.55437L15.4351 9.00033L15.2901 9.10948L15.0374 9.19345L14.9654 9.2401L14.9223 9.3166L14.9027 9.4071L14.9046 9.44348L14.6725 9.49293L14.2271 9.45002L13.4888 8.94248L12.787 8.87158L12.5895 8.81093L12.4267 8.65326L12.0983 8.5553L11.7614 8.58049L11.5387 8.64953L10.7564 8.70178L10.5852 8.83239L10.1528 9.96874L9.97879 10.2216L9.94042 10.1852L9.87773 10.0947L9.36775 9.02178L8.99439 8.53198L8.89145 8.41722L8.84467 8.3939L8.78478 8.37617L8.74361 8.33046L8.68091 8.21104L8.60605 8.12241L8.57049 8.10655L8.5237 8.10375L8.48253 8.09068L8.46475 8.04404L8.43107 8.00485L8.0418 7.80893L7.90705 7.77627L7.82657 7.72683L7.76856 7.66805V7.6186L7.71241 7.59248L7.55521 7.47306L7.54024 7.45533L7.52246 7.44134L7.49813 7.43574L7.47661 7.43948L7.4607 7.4572L7.44385 7.46093L7.4214 7.45347L7.4111 7.43574L7.40642 7.41708L7.40081 7.40682L7.28103 7.3695L7.22395 7.34245L7.18278 7.30606L7.14067 7.25568L7.13225 7.22396L7.16874 7.15772L7.17342 7.11947L7.16126 7.08775L7.12851 7.07375L6.95539 6.96833L6.88896 6.94407L6.80567 6.83864L6.70649 6.7864L6.63537 6.66045L6.58577 6.63153L6.58203 6.6026L6.63069 6.45613L6.63911 6.39828L6.69432 6.37496L6.74953 6.36843L6.81878 6.19676L7.01528 6.01017L8.12508 5.69763L8.18777 5.60899L8.36463 5.49051L8.43949 5.41121L8.48253 5.32537L8.49844 5.20502L8.47037 5.01843L8.39831 4.85049L8.35433 4.79078L8.40954 4.7516L8.4554 4.6779L8.44323 4.64897L8.43949 4.60792L8.44885 4.53702L8.44323 4.49317L8.42732 4.46238L8.4058 4.43906L8.38615 4.41387L8.37866 4.37655L8.39738 4.32244L8.58079 4.23194L8.80724 4.22074L8.9607 4.14144L8.97848 3.92686L8.94947 3.72067L8.95976 3.63484L9.02059 3.59472L9.11229 3.57047L9.33032 3.59939Z" fill="black"/>
<path d="M14.6712 9.49294L14.9033 9.44349L15.0567 9.82321L15.228 9.91464L15.504 9.89598L15.8212 10.0163L15.9532 10.1945L15.8848 10.299L15.7997 10.5789L15.8119 10.689L15.8643 10.9157L16.3415 11.6705L16.4407 11.9214L16.5183 12.0222L16.597 12.0791L16.6428 12.1314L16.7925 12.1799L16.8449 12.2321L16.887 12.331L16.9731 12.6417L17.0686 12.8656L17.1659 13.0195L17.3231 13.1632L17.3849 13.2705L17.6543 13.5607L17.747 13.7669L17.7376 13.9395L17.5654 14.155L17.4522 14.3733L17.2407 14.655L16.8618 14.9946L16.6175 15.0973L16.5099 15.1794L16.4295 15.2857L16.3771 15.4061L16.3799 15.6216L16.524 16.1431L16.5333 16.2924L16.5174 16.3474L16.5034 16.4575L16.4716 16.5779L16.4931 16.6684L17.0339 16.5965L17.1612 16.7607L17.4092 17.0061L17.7114 17.1666L17.8902 17.2963L17.9444 17.4903L17.761 17.9204L17.7835 18.1107L17.8845 18.2255L17.9444 18.469L17.9987 19.0437L17.5093 19.0185L17.3268 18.9299L17.0003 18.984L16.7963 19.0857L16.713 19.053L16.5988 19.04L16.4809 19.0577L16.3658 19.0978L15.3711 19.7332L15.256 19.7817L15.154 19.7593L15.0651 19.6287L15.0567 19.5699L15.0558 19.4048L15.0314 19.3413L15.0081 19.3087L14.9996 19.2881L14.9884 19.2732L14.9538 19.2527L14.9229 19.2396L14.893 19.2322L14.8246 19.2275L14.791 19.2312L14.7227 19.248L14.6843 19.2527L14.6487 19.2452L14.6029 19.2107L14.5767 19.2032L14.5112 19.2135L14.3923 19.2639L14.3268 19.2779L14.2445 19.2714L14.2145 19.2396L14.2183 19.0894L14.2089 19.0782L14.1649 19.0465L14.1518 19.0251L14.15 19.0055L14.1518 18.9504L14.1565 18.9234L14.1696 18.9L14.1687 18.8767L14.1303 18.8515L14.1116 18.9131L14.0789 18.9747L14.033 19.0176L13.9787 19.0251L13.9217 18.9896L13.8945 18.9429L13.8608 18.9066L13.8056 18.901L13.7317 18.8758L13.5221 18.7526L13.479 18.7125L13.4585 18.594L13.4023 18.5203L13.319 18.4774L13.218 18.4513L13.2517 18.3906L13.3041 18.3766L13.4341 18.399L13.5015 18.3953L13.6063 18.3598L13.6643 18.3505L13.7289 18.3664L13.858 18.4354L13.9029 18.4513L13.9731 18.4578L14.0265 18.4802L14.0695 18.5194L14.1107 18.5763L14.1294 18.5268L14.1893 18.4205L14.2829 18.3001L14.3006 18.261L14.3034 18.1984L14.2379 18.2115L14.1911 18.1816L14.1612 18.1247L14.1369 17.9904L14.0994 18.0081L14.0499 18.0613L14.0003 18.0986L14.0049 18.052L14.0096 18.0389L14.0218 18.023L13.9956 17.982L13.9684 17.9885L13.9366 18.0128L13.8926 18.023L13.873 18.01L13.8384 17.9596L13.8169 17.9484L13.7963 17.9521L13.7663 17.9689L13.7504 17.9736L13.6868 17.9633L13.6297 17.9465L13.5764 17.9437L13.5221 17.9736L13.4089 17.9568L13.3181 18.0137L13.2956 18.0884L13.3808 18.1257L13.4819 18.1462L13.5605 18.1966L13.5857 18.2619L13.5221 18.3263L13.4688 18.3253L13.2975 18.3011L13.261 18.3123L13.0879 18.4737L13.0748 18.4905L13.0467 18.5343L13.0308 18.58L13.0673 18.6127L13.0542 18.6388L13.0336 18.6677L13.0224 18.6873L13.0458 18.7657L13.1019 18.8226L13.1656 18.8711L13.218 18.928L13.2442 18.9933L13.2648 19.0754L13.2825 19.2396L13.276 19.2863L13.2479 19.3609L13.2395 19.402L13.2414 19.4412L13.2591 19.5102L13.261 19.5522L13.2414 19.624L13.1993 19.6893L13.1422 19.735L13.0767 19.7537L12.8615 19.7285L12.8062 19.7537L12.7445 19.7248L12.5227 19.7266L12.3889 19.652L12.3374 19.6408L12.329 19.7042L12.344 19.7472L12.387 19.8162L12.3955 19.8666L12.3861 19.903L12.3627 19.9338L12.3337 19.9599L12.3066 19.9776L12.2345 20L12.0015 19.9776V19.9524L11.9847 19.9748L11.9809 19.9841L11.9594 19.9739L11.8611 19.9459L11.8134 19.917L11.7694 19.8824L11.7489 19.8619L11.7348 19.8377L11.7067 19.7668L11.7002 19.7192L11.6422 19.5372L11.6338 19.5317L11.615 19.4934L11.5523 19.4225L11.5121 19.3376L11.5065 19.3124L11.513 19.2714L11.5383 19.2415L11.5683 19.2135L11.5916 19.1827L11.6001 19.1435L11.5935 19.1034L11.5776 19.067L11.557 19.0353L11.4335 18.9234L11.3315 18.8067L11.2669 18.6994L11.2379 18.6743L11.1996 18.6612L11.1593 18.6593L11.0433 18.6789L11.0049 18.6808L10.9675 18.6752L10.9329 18.6593L10.9076 18.6323L10.8936 18.5968L10.8674 18.4363L10.8384 18.3561L10.7981 18.2843L10.7448 18.2274L10.712 18.2068L10.6774 18.1947L10.3415 18.1462L10.3368 18.0342L10.3471 16.2635L10.3377 16.2159L10.3031 16.1954H9.26257L9.27287 15.3034L9.28129 14.669L9.76413 13.3563L9.78285 13.2724L9.77443 13.1931L9.73045 13.1268L9.60599 13.0326L9.55453 12.9766L9.5433 12.9477L9.52739 12.8833L9.50961 12.8497L9.48528 12.8264L9.4282 12.7891L9.40668 12.7593L9.29252 12.5559L9.27755 12.4906V12.4896L9.24667 12.4243L9.13625 12.3702L9.08759 12.3142L9.01554 12.1519L8.96875 12.0847L9.05297 12.0511L9.38422 11.8337L9.49745 11.649L9.46002 11.4102L9.4544 11.2199L9.68647 10.8998L9.97748 10.2216L10.1515 9.96875L10.5838 8.8324L10.7551 8.70178L11.5374 8.64954L11.7601 8.58049L12.0969 8.55531L12.4254 8.65327L12.5882 8.81094L12.7857 8.87158L13.4875 8.94249L14.2258 9.45002L14.6712 9.49294Z" fill="black"/>
</svg>
