<svg width="14" height="18" viewBox="0 0 14 18" fill="none" xmlns="http://www.w3.org/2000/svg">
<path fill-rule="evenodd" clip-rule="evenodd" d="M4.41927 0.666672H9.56094C11.8193 0.666672 13.6443 1.55834 13.6693 3.82501V16.475C13.6693 16.6167 13.6359 16.7583 13.5693 16.8833C13.4609 17.0833 13.2776 17.2333 13.0526 17.3C12.8359 17.3667 12.5943 17.3333 12.3943 17.2167L6.99427 14.5167L1.58594 17.2167C1.46177 17.2825 1.31927 17.325 1.1776 17.325C0.710937 17.325 0.335938 16.9417 0.335938 16.475V3.82501C0.335938 1.55834 2.16927 0.666672 4.41927 0.666672ZM3.8526 7.01667H10.1276C10.4859 7.01667 10.7776 6.72417 10.7776 6.35834C10.7776 5.99167 10.4859 5.70001 10.1276 5.70001H3.8526C3.49427 5.70001 3.2026 5.99167 3.2026 6.35834C3.2026 6.72417 3.49427 7.01667 3.8526 7.01667Z" fill="#0B0D18"/>
</svg>
