<svg width="20" height="21" viewBox="0 0 20 21" fill="none" xmlns="http://www.w3.org/2000/svg">
<path d="M15.8725 1.33401C14.4364 0.508895 12.7321 0.285541 11.1318 0.712726C9.53157 1.13991 8.16535 2.18293 7.3315 3.61401L7.1035 4.00851C7.05402 4.09387 7.02187 4.18815 7.00889 4.28596C6.99591 4.38376 7.00236 4.48316 7.02785 4.57847C7.05335 4.67378 7.09741 4.76312 7.15749 4.84138C7.21758 4.91963 7.29251 4.98527 7.378 5.03451L11.35 7.31751L8.9065 11.588C6.7315 11.8715 4.8865 13.283 3.7165 15.179C3.8465 15.149 3.981 15.1315 4.12 15.1265C4.60795 15.1069 5.08903 15.2466 5.49059 15.5245C5.89215 15.8024 6.1924 16.2035 6.346 16.667C6.39242 16.8393 6.49347 16.992 6.634 17.102C6.73671 17.1757 6.86008 17.2151 6.9865 17.2145C7.10805 17.2164 7.22731 17.1814 7.3285 17.114C7.45305 17.0227 7.54337 16.8922 7.585 16.7435C7.73737 16.3004 8.0243 15.9158 8.40575 15.6436C8.7872 15.3714 9.24413 15.2251 9.71275 15.2251C10.1814 15.2251 10.6383 15.3714 11.0197 15.6436C11.4012 15.9158 11.6881 16.3004 11.8405 16.7435C11.9155 16.958 12.0175 17.06 12.097 17.114C12.19 17.177 12.307 17.2145 12.4405 17.213C12.5662 17.2137 12.689 17.1749 12.7915 17.102C12.932 16.992 13.0331 16.8393 13.0795 16.667C13.255 16.1369 13.6214 15.691 14.1073 15.416C14.5933 15.141 15.1642 15.0565 15.709 15.179C14.56 13.313 12.7555 11.918 10.6255 11.603L12.649 8.06301L16.909 10.511C17.0808 10.6096 17.2847 10.6363 17.476 10.5851C17.6674 10.534 17.8308 10.4092 17.9305 10.238L18.16 9.84201C18.571 9.13375 18.8379 8.35119 18.9452 7.53938C19.0526 6.72757 18.9984 5.90254 18.7856 5.11178C18.5729 4.32102 18.2058 3.58015 17.7056 2.9318C17.2054 2.28346 16.5834 1.74044 15.8725 1.33401ZM4.921 17.1395C4.86974 16.9852 4.76971 16.8517 4.63598 16.7592C4.50225 16.6666 4.34206 16.6201 4.17957 16.6265C4.01707 16.6329 3.86107 16.692 3.73507 16.7948C3.60907 16.8976 3.5199 17.0386 3.481 17.1965C3.2935 17.9645 2.944 18.3665 2.5615 18.599C2.152 18.8465 1.6195 18.9485 1 18.9485C0.801088 18.9485 0.610322 19.0275 0.46967 19.1682C0.329018 19.3088 0.25 19.4996 0.25 19.6985C0.25 19.8974 0.329018 20.0882 0.46967 20.2288C0.610322 20.3695 0.801088 20.4485 1 20.4485C1.756 20.4485 2.599 20.3285 3.337 19.883C3.703 19.661 4.0255 19.3715 4.291 19.0055C5.7325 20.6255 8.311 20.6165 9.7135 18.977C11.14 20.6465 13.7875 20.627 15.2125 18.917C15.6033 19.392 16.0936 19.7753 16.6487 20.0399C17.2039 20.3046 17.8105 20.4441 18.4255 20.4485C18.6244 20.4485 18.8152 20.3695 18.9558 20.2288C19.0965 20.0882 19.1755 19.8974 19.1755 19.6985C19.1755 19.4996 19.0965 19.3088 18.9558 19.1682C18.8152 19.0275 18.6244 18.9485 18.4255 18.9485C17.3515 18.9485 16.282 18.2465 15.9295 17.147C15.881 16.9967 15.7862 16.8655 15.6588 16.7722C15.5313 16.6789 15.3777 16.6283 15.2197 16.6274C15.0618 16.6266 14.9076 16.6757 14.7792 16.7676C14.6507 16.8596 14.5546 16.9897 14.5045 17.1395C13.807 19.241 11.0995 19.205 10.4215 17.2295C10.3705 17.0821 10.2748 16.9543 10.1478 16.8639C10.0208 16.7734 9.8687 16.7248 9.71275 16.7248C9.5568 16.7248 9.40474 16.7734 9.27771 16.8639C9.15068 16.9543 9.05501 17.0821 9.004 17.2295C8.3245 19.205 5.617 19.241 4.921 17.1395Z" fill="#ECC16D"/>
</svg>
