<svg width="14" height="19" viewBox="0 0 14 19" fill="none" xmlns="http://www.w3.org/2000/svg">
<path d="M8.94118 13.4118V19H4.47059V15.6471H3.35294C2.46369 15.6471 1.61085 15.2938 0.982054 14.665C0.353255 14.0362 0 13.1834 0 12.2941V8.94118C0 8.64476 0.117752 8.36048 0.327351 8.15088C0.536951 7.94128 0.821229 7.82353 1.11765 7.82353C1.41407 7.82353 1.69834 7.94128 1.90794 8.15088C2.11754 8.36048 2.23529 8.64476 2.23529 8.94118V12.2941C2.23529 12.92 2.73824 13.4118 3.35294 13.4118H4.47059V2.23529C4.47059 1.64246 4.70609 1.0739 5.12529 0.654702C5.54449 0.235503 6.11305 0 6.70588 0C7.29872 0 7.86727 0.235503 8.28647 0.654702C8.70567 1.0739 8.94118 1.64246 8.94118 2.23529V11.1765H10.0588C10.3552 11.1765 10.6395 11.0587 10.8491 10.8491C11.0587 10.6395 11.1765 10.3552 11.1765 10.0588V7.82353C11.1765 7.52711 11.2942 7.24283 11.5038 7.03323C11.7134 6.82363 11.9977 6.70588 12.2941 6.70588C12.5905 6.70588 12.8748 6.82363 13.0844 7.03323C13.294 7.24283 13.4118 7.52711 13.4118 7.82353V10.0588C13.4118 10.9481 13.0585 11.8009 12.4297 12.4297C11.8009 13.0585 10.9481 13.4118 10.0588 13.4118H8.94118Z" fill="#FFAA85"/>
</svg>
