<svg width="18" height="22" viewBox="0 0 18 22" fill="none" xmlns="http://www.w3.org/2000/svg">
<path fill-rule="evenodd" clip-rule="evenodd" d="M10.6297 14.5301C10.2365 15.9987 10.226 17.2236 10.598 18.2047C11.2815 20.0081 13.6837 20.5271 13.7968 20.9998C13.91 21.4726 10.598 21.7143 8.72597 21.7143C6.8544 21.7143 4.55855 21.3573 4.55855 20.9998C4.55855 20.6428 6.7374 20.1688 7.39954 18.1713C7.78526 17.0067 7.74297 15.6694 7.27269 14.1594C7.15549 14.1961 7.03335 14.2146 6.91054 14.2143C6.40012 14.2143 5.97497 13.9014 5.88326 13.4883C5.53097 13.7197 5.08954 13.8568 4.61083 13.8568C3.57797 13.8568 2.7204 13.2174 2.55069 12.3766C2.40366 12.4114 2.25306 12.4288 2.10197 12.4284C1.1784 12.4284 0.429688 11.789 0.429688 11C0.429688 10.4673 0.77083 10.0027 1.27697 9.75713C1.01683 9.59471 0.847973 9.33199 0.847973 9.03585C0.848545 8.93242 0.86783 8.83442 0.90583 8.74185C0.619116 8.61456 0.429688 8.39428 0.429688 8.1427C0.429688 7.83113 0.721973 7.56628 1.12912 7.46856C0.702688 7.20713 0.429688 6.80599 0.429688 6.35728C0.429688 5.64456 1.11669 5.05442 2.01497 4.94599C1.8032 4.68969 1.68634 4.36817 1.68412 4.03571C1.68412 3.14813 2.52626 2.42856 3.56554 2.42856C3.67012 2.42856 3.77269 2.43571 3.87326 2.44999C4.12397 1.81442 4.82769 1.35713 5.65612 1.35713C5.88626 1.35713 6.10654 1.39228 6.31054 1.45699C6.45197 0.790991 7.13512 0.285706 7.9554 0.285706C8.79454 0.285706 9.48969 0.813706 9.60969 1.50156C9.91612 1.19471 10.3725 1.00013 10.8825 1.00013C11.8061 1.00013 12.5548 1.63956 12.5548 2.42856C12.5548 2.69428 12.4695 2.94328 12.3217 3.15671C12.3977 3.14756 12.4754 3.14299 12.5548 3.14299C13.4145 3.14299 14.1234 3.69713 14.2168 4.41071C14.4798 4.28028 14.7697 4.21307 15.0633 4.21442C15.9873 4.21442 16.736 4.85385 16.736 5.64285C16.736 6.18071 16.388 6.64913 15.8737 6.89299C16.388 7.13642 16.736 7.60485 16.736 8.1427C16.736 8.60985 16.4733 9.02513 16.0674 9.2857C16.2243 9.46485 16.3177 9.68728 16.3177 9.92856C16.3174 10.0214 16.3043 10.1106 16.2783 10.196C17.0497 10.5616 17.5721 11.2644 17.5721 12.0714C17.5721 13.2547 16.4493 14.2143 15.0633 14.2143C14.7176 14.2151 14.3747 14.1536 14.051 14.0326C13.6713 14.3651 13.1411 14.5713 12.5548 14.5713C12.1063 14.5751 11.6663 14.4486 11.2884 14.207C11.1084 14.36 10.8825 14.4731 10.6297 14.5301Z" fill="#308C55"/>
</svg>
