<svg width="12" height="15" viewBox="0 0 12 15" fill="none" xmlns="http://www.w3.org/2000/svg">
<path opacity="0.6" d="M6 0.333313C7.5913 0.333313 9.11742 0.965454 10.2426 2.09067C11.3679 3.21589 12 4.74201 12 6.33331C12 8.38265 10.8827 10.06 9.70533 11.2633C9.11712 11.858 8.47528 12.3972 7.788 12.874L7.504 13.0673L7.37067 13.156L7.11933 13.316L6.89533 13.4526L6.618 13.614C6.42976 13.7214 6.21675 13.7779 6 13.7779C5.78325 13.7779 5.57024 13.7214 5.382 13.614L5.10467 13.4526L4.758 13.2393L4.63 13.156L4.35667 12.974C3.61522 12.4723 2.9246 11.8994 2.29467 11.2633C1.11733 10.0593 0 8.38265 0 6.33331C0 4.74201 0.632141 3.21589 1.75736 2.09067C2.88258 0.965454 4.4087 0.333313 6 0.333313ZM6 4.33331C5.73736 4.33331 5.47728 4.38504 5.23463 4.48555C4.99198 4.58606 4.7715 4.73338 4.58579 4.9191C4.40007 5.10482 4.25275 5.32529 4.15224 5.56795C4.05173 5.8106 4 6.07067 4 6.33331C4 6.59596 4.05173 6.85603 4.15224 7.09868C4.25275 7.34133 4.40007 7.56181 4.58579 7.74753C4.7715 7.93324 4.99198 8.08056 5.23463 8.18107C5.47728 8.28158 5.73736 8.33331 6 8.33331C6.53043 8.33331 7.03914 8.1226 7.41421 7.74753C7.78929 7.37245 8 6.86375 8 6.33331C8 5.80288 7.78929 5.29417 7.41421 4.9191C7.03914 4.54403 6.53043 4.33331 6 4.33331Z" fill="#575A67"/>
</svg>
