<svg width="18" height="18" viewBox="0 0 18 18" fill="none" xmlns="http://www.w3.org/2000/svg">
<path fill-rule="evenodd" clip-rule="evenodd" d="M6.85055 9.47242L4.18573 8.58412C1.39526 7.65396 0 7.18888 0 6.33423C0 5.47954 1.39525 5.01446 4.18574 4.0843L14.2808 0.719265C16.2443 0.0647754 17.2261 -0.262463 17.7443 0.255763C18.2625 0.773978 17.9352 1.75572 17.2807 3.71919L13.9157 13.8143C12.9856 16.6048 12.5205 18 11.6657 18C10.8111 18 10.3461 16.6048 9.41577 13.8143L8.52759 11.1494L13.6901 5.98691C14.1531 5.52383 14.1531 4.773 13.6901 4.30991C13.227 3.84682 12.4761 3.84682 12.0131 4.30991L6.85055 9.47242Z" fill="#222222"/>
</svg>
