<svg width="22" height="16" viewBox="0 0 22 16" fill="none" xmlns="http://www.w3.org/2000/svg">
<path d="M21.9037 14.4298L17.2152 6.51711C17.0943 6.31098 16.9214 6.14025 16.7137 6.02201C16.506 5.90377 16.2709 5.84218 16.032 5.8434C15.7931 5.84215 15.5581 5.90374 15.3506 6.02199C15.143 6.14024 14.9702 6.31099 14.8495 6.51711L13.5055 8.78487C13.4742 8.83783 13.4577 8.89822 13.4577 8.95974C13.4577 9.02126 13.4742 9.08165 13.5055 9.13461L15.8085 13.042C15.896 13.1871 15.9277 13.359 15.8979 13.5258C15.868 13.6926 15.7785 13.8428 15.6461 13.9485C15.5689 14.0085 15.4799 14.0512 15.3849 14.074C15.2899 14.0968 15.1911 14.0991 15.0952 14.0807C14.9993 14.0623 14.9083 14.0237 14.8285 13.9675C14.7486 13.9112 14.6817 13.8385 14.6321 13.7543L8.74832 3.77071C8.6269 3.56436 8.4537 3.39328 8.24586 3.27443C8.03802 3.15557 7.80274 3.09304 7.56332 3.09304C7.32389 3.09304 7.08861 3.15557 6.88077 3.27443C6.67293 3.39328 6.49973 3.56436 6.37831 3.77071L0.0966524 14.4315C0.0208593 14.5589 -0.0117237 14.7074 0.00376234 14.8548C0.0192484 15.0022 0.0819739 15.1407 0.182585 15.2496C0.250333 15.3204 0.332067 15.3764 0.422601 15.414C0.513135 15.4515 0.610491 15.4699 0.708491 15.4678H21.2927C21.3903 15.469 21.4871 15.4502 21.5771 15.4125C21.6671 15.3748 21.7485 15.3191 21.8161 15.2487C21.9171 15.14 21.9803 15.0014 21.9961 14.8538C22.0119 14.7062 21.9795 14.5574 21.9037 14.4298ZM5.53789 7.90578L7.56332 4.46848L9.58874 7.90578H5.53789ZM12.0318 2.06238C12.0318 1.65448 12.1528 1.25574 12.3794 0.916583C12.606 0.577426 12.9281 0.313086 13.3049 0.15699C13.6818 0.000893599 14.0965 -0.0399483 14.4965 0.0396289C14.8966 0.119206 15.2641 0.315629 15.5525 0.604057C15.8409 0.892486 16.0373 1.25997 16.1169 1.66003C16.1965 2.06009 16.1557 2.47477 15.9996 2.85162C15.8435 3.22847 15.5791 3.55056 15.24 3.77718C14.9008 4.0038 14.5021 4.12475 14.0942 4.12475C13.5472 4.12475 13.0226 3.90747 12.6359 3.5207C12.2491 3.13393 12.0318 2.60935 12.0318 2.06238Z" fill="#58B056"/>
</svg>
