<svg width="30" height="26" viewBox="0 0 30 26" fill="none" xmlns="http://www.w3.org/2000/svg">
<path d="M14.9967 9.66669V24.6667M14.9967 9.66669L19.9967 14.6667M14.9967 9.66669L9.99669 14.6667M24.1634 18C26.695 18 28.33 15.9484 28.33 13.4167C28.3299 12.4144 28.0013 11.4397 27.3944 10.642C26.7876 9.84433 25.936 9.26755 24.97 9.00002C24.8214 7.13079 24.0467 5.3663 22.7712 3.99185C21.4956 2.61739 19.7938 1.7133 17.9409 1.42573C16.0879 1.13817 14.1921 1.48396 12.56 2.40717C10.9279 3.33039 9.65485 4.77708 8.94669 6.51336C7.45573 6.10006 5.86166 6.29597 4.51515 7.058C3.16864 7.82002 2.17999 9.08573 1.76669 10.5767C1.35339 12.0677 1.54931 13.6617 2.31133 15.0082C3.07335 16.3547 4.33906 17.3434 5.83002 17.7567" stroke="#92949C" stroke-width="2" stroke-linecap="round" stroke-linejoin="round"/>
</svg>
